<svg width="676" height="469" viewBox="0 0 676 469" fill="none" xmlns="http://www.w3.org/2000/svg">
<path d="M252.55 161.42L196.859 163.794L197.175 160.708C197.175 160.708 201.797 160.783 202.482 160.182C203.166 159.582 206.347 154.085 207.311 154.423C208.275 154.761 253.641 159.282 253.641 159.282L252.55 161.42Z" fill="#F5F5F5"/>
<path d="M188.615 160.201C189.09 159.27 189.82 158.507 190.711 158.008C191.603 157.509 192.616 157.296 193.624 157.397C194.631 157.498 195.588 157.907 196.372 158.574C197.156 159.24 197.732 160.134 198.029 161.142C198.325 162.149 198.327 163.226 198.036 164.235C197.744 165.244 197.172 166.141 196.391 166.811C195.61 167.481 194.655 167.896 193.648 168.001C192.641 168.107 191.627 167.9 190.733 167.405C190.139 167.077 189.612 166.631 189.184 166.092C188.756 165.552 188.434 164.93 188.238 164.26C188.041 163.591 187.973 162.888 188.038 162.192C188.103 161.495 188.299 160.818 188.615 160.201Z" fill="#F5F5F5"/>
<path d="M192.886 166.898L190.543 171.476C190.543 171.476 192.652 179.027 192.454 179.421C192.255 179.815 166.604 218.319 166.604 218.319L164.216 216.997L190.498 165.576L192.886 166.898Z" fill="#F5F5F5"/>
<path d="M192.634 158.869L189.841 159.91L186.994 155.07L179.038 153.916L160.702 109.952L162.441 108.761L192.634 158.869Z" fill="#F5F5F5"/>
<path d="M191.417 162.377L190.084 269.872H200.319L197.373 164.656L191.417 162.377Z" fill="#F5F5F5"/>
<path d="M33.9587 166.683L98.8847 127.099L100.389 130.973C100.389 130.973 94.8393 133.937 94.3888 135.11C93.9383 136.282 93.4878 144.93 92.1453 145.165C90.8028 145.399 33.9587 169.956 33.9587 169.956V166.683Z" fill="#E0E0E0"/>
<path d="M110.895 125.936C110.895 127.359 110.49 128.751 109.73 129.934C108.97 131.117 107.89 132.039 106.627 132.584C105.364 133.128 103.974 133.27 102.633 132.991C101.292 132.713 100.061 132.027 99.0946 131.02C98.1285 130.013 97.4711 128.73 97.2054 127.334C96.9398 125.937 97.0779 124.491 97.6024 123.176C98.1268 121.862 99.014 120.739 100.152 119.949C101.289 119.16 102.626 118.74 103.993 118.741C104.901 118.741 105.799 118.928 106.637 119.289C107.475 119.651 108.236 120.181 108.877 120.849C109.518 121.517 110.026 122.311 110.372 123.183C110.719 124.056 110.896 124.992 110.895 125.936Z" fill="#E0E0E0"/>
<path d="M101.741 120.767V113.77C101.741 113.77 94.623 106.163 94.623 105.563C94.623 104.962 101.741 42.1349 101.741 42.1349H105.345V120.767H101.741Z" fill="#E0E0E0"/>
<path d="M106.922 130.176L109.616 127.099L115.959 130.973L126.149 127.099L174.776 167.395L173.433 169.956L106.922 130.176Z" fill="#E0E0E0"/>
<path d="M98.8847 127.099L97.0827 272.217H110.895L106.922 130.176L98.8847 127.099Z" fill="#E0E0E0"/>
<path d="M571.621 209.756L541.591 160.886L544.294 159.601C544.294 159.601 546.565 163.803 547.403 164.112C548.241 164.422 554.412 164.516 554.611 165.548C554.809 166.579 573.928 209.634 573.928 209.634L571.621 209.756Z" fill="#E0E0E0"/>
<path d="M535.879 153.325C536.355 152.398 537.084 151.639 537.975 151.143C538.865 150.647 539.877 150.437 540.882 150.539C541.887 150.642 542.84 151.052 543.622 151.718C544.403 152.385 544.977 153.277 545.271 154.283C545.565 155.288 545.567 156.362 545.275 157.369C544.984 158.375 544.412 159.269 543.632 159.938C542.853 160.606 541.901 161.019 540.896 161.124C539.891 161.23 538.879 161.023 537.987 160.529C536.79 159.865 535.896 158.732 535.501 157.382C535.106 156.031 535.242 154.572 535.879 153.325Z" fill="#E0E0E0"/>
<path d="M536.996 158.869L532.013 159.066C532.013 159.066 526.815 164.769 526.391 164.788C525.968 164.807 481.134 161.148 481.134 161.148L481.026 158.334L536.888 156.055L536.996 158.869Z" fill="#E0E0E0"/>
<path d="M543.546 154.592L541.285 152.613L543.853 147.613L540.798 139.875L568.035 101.229L569.901 102.195L543.546 154.592Z" fill="#E0E0E0"/>
<path d="M538.672 155.492L537.347 262.987H547.583L544.636 157.772L538.672 155.492Z" fill="#E0E0E0"/>
<path d="M213.672 92.862H308.746C308.746 92.862 300.339 76.916 275.868 79.261C252.496 81.4747 251.307 71.4193 239.423 70.1812C227.539 68.943 217.637 78.4168 213.672 92.862Z" fill="#F5F5F5"/>
<path d="M289.149 130.194H367.788C367.788 130.194 360.832 117.062 340.596 118.938C321.261 120.814 320.278 112.457 310.449 111.434C300.619 110.412 292.42 118.254 289.149 130.194Z" fill="#EBEBEB"/>
<path d="M428.335 94.4941H537.122C537.122 94.4941 527.508 76.2688 499.505 78.9233C472.764 81.4559 471.403 69.956 457.798 68.5396C444.193 67.1233 432.876 77.9759 428.335 94.4941Z" fill="#EBEBEB"/>
<path d="M643.593 402.646C643.593 402.777 512.705 402.89 351.291 402.89C189.877 402.89 58.9524 402.777 58.9524 402.646C58.9524 402.515 189.814 402.402 351.291 402.402C512.768 402.402 643.593 402.505 643.593 402.646Z" fill="#263238"/>
<path d="M77.0645 372.695L476.612 373.348L476.705 311.787L77.1574 311.134L77.0645 372.695Z" fill="#455A64"/>
<path d="M497.505 266.439C497.505 266.439 487.513 267.602 485.738 266.439C481.72 263.747 394.269 227.043 319.125 226.958C258.857 226.874 204.59 243.514 151.809 280.199C151.809 280.199 87.5322 287.572 62.4303 307.157C56.5648 310.703 44.5905 324.679 49.1586 356.421C52.0688 376.663 66.5479 377.517 86.3248 377.057C86.3248 377.057 78.9636 315.571 131.6 320.271C176.326 324.257 167.766 381.1 167.766 381.1L391.872 381.466C391.872 381.466 392.854 356.215 393.809 350.099C395.71 337.849 410.333 317.776 437.634 320.758C467.583 324.032 477.548 352.482 475.629 376.494C475.629 376.494 507.227 383.604 511.498 357.143L519.039 354.705C519.039 354.705 521.94 299.813 495.613 276.738L501.262 272.827L497.505 266.439Z" fill="#F75D34"/>
<path d="M482.603 264.685C482.603 264.685 480.738 269.975 474.313 269.375C469.079 268.896 439.174 257.096 428.272 252.744C426.716 252.151 425.315 251.184 424.183 249.923C423.052 248.662 422.221 247.141 421.758 245.484C421.53 244.787 421.48 244.04 421.614 243.317C421.614 243.317 468.106 254.948 482.603 264.685Z" fill="#455A64"/>
<path d="M225.899 241.694C225.89 243.92 225.278 246.098 224.134 247.978C222.99 249.858 221.359 251.364 219.43 252.322L155.459 284.055L151.8 279.955C151.8 279.955 158.486 274.947 167.226 269.534C175.335 264.535 185.246 259.216 191.165 256.215C202.393 250.512 214.001 245.659 225.899 241.694Z" fill="#455A64"/>
<g opacity="0.3">
<path d="M438.282 269.384C438.714 269.769 439.061 270.247 439.299 270.784C439.536 271.322 439.66 271.907 439.66 272.498C439.66 273.09 439.536 273.675 439.299 274.213C439.061 274.75 438.714 275.228 438.282 275.613C435.111 278.98 420.001 290.677 412.982 291.39C405.964 292.103 192.814 306.914 180.2 303.152C167.586 299.391 160.198 292.731 163.369 288.904L169.091 286.934L269.57 289.073L438.282 269.384Z" fill="white"/>
</g>
<g opacity="0.7">
<path d="M515.813 316.566C515.813 316.566 503.407 320.393 498.109 310.206C492.811 300.019 486.972 289.251 486.972 286.925C486.972 284.008 488.982 274.628 495.613 276.532C495.613 276.532 514.056 291.831 515.813 316.566Z" fill="white"/>
</g>
<g opacity="0.7">
<path d="M56.9702 327.015C56.9702 327.015 105.012 307.007 97.2359 300.188C93.1364 296.586 53.6365 316.397 56.9702 327.015Z" fill="white"/>
</g>
<path d="M76.585 376.879C76.585 376.879 76.585 376.71 76.585 376.382C76.585 376.054 76.5309 375.556 76.5219 374.9C76.5219 373.605 76.4679 371.701 76.5219 369.272C76.7884 362.316 77.8161 355.415 79.5853 348.701C80.8107 344.052 82.5239 339.557 84.694 335.297C87.1687 330.39 90.4639 325.981 94.4248 322.278L96.0196 320.824L97.7405 319.502C98.9183 318.611 100.139 317.785 101.399 317.025C102.02 316.622 102.705 316.322 103.363 315.965C104.02 315.609 104.678 315.243 105.381 314.952L107.48 314.089L108.543 313.658L109.634 313.311C111.111 312.812 112.616 312.401 114.139 312.082L116.427 311.585C117.202 311.463 117.986 311.378 118.761 311.266C119.536 311.153 120.329 311.05 121.121 310.966L123.5 310.844C125.103 310.708 126.713 310.67 128.32 310.731C134.636 310.716 140.9 311.925 146.791 314.296C152.262 316.563 157.185 320.061 161.207 324.539C164.792 328.628 167.719 333.294 169.875 338.355C171.764 342.747 173.222 347.326 174.226 352.022C175.671 358.8 176.432 365.716 176.497 372.658C176.497 375.125 176.434 377.038 176.362 378.333C176.362 378.971 176.281 379.468 176.245 379.796C176.209 380.124 176.173 380.293 176.173 380.293C176.173 380.293 176.173 380.124 176.173 379.796C176.173 379.468 176.173 378.952 176.236 378.324C176.29 377.029 176.326 375.125 176.236 372.696C176.114 365.749 175.308 358.834 173.83 352.06C172.807 347.395 171.34 342.848 169.451 338.487C167.3 333.474 164.385 328.856 160.82 324.811C156.826 320.383 151.94 316.933 146.512 314.708C140.672 312.361 134.463 311.165 128.203 311.181C121.95 311.014 115.71 311.875 109.715 313.733L108.625 314.071L107.579 314.502L105.498 315.346C104.804 315.637 104.165 316.022 103.507 316.35C102.849 316.678 102.173 316.997 101.561 317.4C100.319 318.143 99.1155 318.954 97.9567 319.83L96.2448 321.143L94.6681 322.578C90.736 326.241 87.4596 330.602 84.9913 335.457C82.8081 339.667 81.0768 344.115 79.8286 348.72C78.033 355.404 76.9572 362.275 76.621 369.206C76.5039 371.664 76.4859 373.568 76.4949 374.834V376.307C76.585 376.71 76.585 376.879 76.585 376.879Z" fill="#263238"/>
<path d="M384.322 381.25C384.322 381.25 384.322 381.081 384.259 380.753C384.195 380.425 384.195 379.946 384.159 379.308C384.078 378.033 384.006 376.138 384.024 373.68C384.052 366.807 384.78 359.955 386.196 353.241C387.169 348.6 388.587 344.071 390.43 339.725C392.551 334.72 395.453 330.115 399.017 326.096C402.988 321.663 407.865 318.217 413.289 316.012C419.13 313.693 425.328 312.501 431.579 312.495C437.805 312.235 444.031 312.991 450.032 314.737C450.392 314.849 450.761 314.934 451.113 315.055L452.167 315.459L454.266 316.275C455.636 316.838 456.969 317.569 458.249 318.207C459.483 318.995 460.753 319.708 461.916 320.562L463.619 321.865C463.898 322.081 464.195 322.287 464.457 322.522L465.24 323.244C469.203 326.843 472.512 331.154 475.007 335.973C477.158 340.168 478.833 344.61 479.999 349.208C481.697 355.852 482.605 362.688 482.702 369.563C482.747 371.992 482.702 373.887 482.603 375.191C482.603 375.828 482.531 376.316 482.495 376.645C482.459 376.973 482.422 377.132 482.422 377.132C482.406 376.967 482.406 376.8 482.422 376.635C482.422 376.288 482.422 375.81 482.495 375.181C482.495 373.906 482.576 372.02 482.495 369.6C482.329 362.748 481.382 355.94 479.674 349.321C478.486 344.759 476.802 340.353 474.656 336.189C472.16 331.422 468.861 327.161 464.916 323.61L464.141 322.897C463.871 322.672 463.583 322.475 463.312 322.25L461.618 320.965C460.474 320.13 459.213 319.427 458.014 318.648C456.708 318.02 455.428 317.297 454.068 316.772L451.996 315.975L450.951 315.581C450.599 315.449 450.23 315.365 449.869 315.262C443.924 313.516 437.752 312.75 431.579 312.992C425.395 313.006 419.265 314.188 413.487 316.481C408.113 318.65 403.275 322.048 399.332 326.424C395.79 330.401 392.902 334.958 390.782 339.912C388.945 344.234 387.521 348.733 386.529 353.345C385.099 360.034 384.326 366.857 384.222 373.709C384.177 376.138 384.222 378.023 384.268 379.337C384.268 379.965 384.268 380.443 384.331 380.79C384.394 381.138 384.322 381.25 384.322 381.25Z" fill="#263238"/>
<path d="M436.174 269.375C436.174 269.375 417.541 286.259 409.468 286.259C401.395 286.259 188.624 299.691 179.155 295.705C174.166 293.708 169.344 291.286 164.739 288.463C164.739 288.463 234.17 236.404 315.08 238.899C374.474 240.728 436.174 269.375 436.174 269.375Z" fill="#455A64"/>
<path d="M207.717 263.606L193.661 296.436L186.525 296.427L198.139 268.324L207.717 263.606Z" fill="#263238"/>
<g opacity="0.3">
<path d="M385.089 311.635L359.861 311.593L359.869 306.35C359.869 306.034 359.99 305.731 360.205 305.508C360.42 305.285 360.711 305.16 361.015 305.161L383.954 305.198C384.258 305.199 384.549 305.325 384.763 305.548C384.977 305.772 385.097 306.075 385.097 306.391L385.089 311.588L385.089 311.635Z" fill="black"/>
</g>
<g opacity="0.3">
<path d="M286.762 311.476L261.534 311.435L261.542 306.239C261.543 305.923 261.664 305.62 261.879 305.397C262.094 305.174 262.385 305.049 262.688 305.049L285.637 305.087C285.94 305.087 286.231 305.213 286.445 305.437C286.66 305.661 286.78 305.964 286.779 306.28L286.771 311.476L286.762 311.476Z" fill="black"/>
</g>
<path d="M374.095 247.923L396.125 286.897L375.6 288.041L378.249 269.29L364.77 245.672L374.095 247.923Z" fill="#263238"/>
<path d="M293.78 239.453L290.347 292.694L297.835 292.309L301.069 238.974L293.78 239.453Z" fill="#263238"/>
<path d="M197.896 304.484L201.094 301.042L196.004 294.298L191.625 298.659C190.973 299.237 190.568 300.06 190.498 300.948C189.886 305.141 195.066 307.523 197.896 304.484Z" fill="#263238"/>
<path d="M210.834 303.218C218.61 303.49 224.727 295.236 221.493 287.863C221.157 286.965 220.606 286.171 219.891 285.559C219.176 284.946 218.322 284.535 217.411 284.364C209.302 282.891 198.806 282.347 195.976 294.298C195.148 297.834 197.049 300.019 200.157 301.342C203.112 302.599 207.104 303.077 210.834 303.218Z" fill="#F75D34"/>
<path d="M161.36 366.959C162.719 346.508 147.898 328.783 128.254 327.367C108.611 325.952 91.5846 341.382 90.2248 361.832C88.8649 382.282 103.687 400.008 123.33 401.423C142.973 402.839 160 387.409 161.36 366.959Z" fill="#263238"/>
<path d="M125.825 339.659C121.127 339.646 116.53 341.084 112.617 343.791C108.704 346.498 105.65 350.352 103.842 354.866C102.033 359.381 101.551 364.352 102.457 369.151C103.362 373.95 105.615 378.362 108.929 381.829C112.244 385.295 116.471 387.66 121.077 388.625C125.683 389.589 130.46 389.11 134.805 387.248C139.149 385.386 142.865 382.224 145.483 378.163C148.101 374.101 149.503 369.323 149.512 364.432C149.519 361.186 148.912 357.97 147.725 354.969C146.539 351.967 144.796 349.239 142.597 346.938C140.397 344.638 137.784 342.811 134.906 341.562C132.028 340.313 128.942 339.667 125.825 339.659ZM106.768 364.366C106.774 360.45 107.895 356.623 109.989 353.37C112.083 350.117 115.057 347.583 118.535 346.09C122.012 344.596 125.837 344.21 129.526 344.979C133.214 345.749 136.601 347.639 139.257 350.413C141.913 353.186 143.72 356.717 144.448 360.559C145.177 364.401 144.795 368.382 143.351 371.998C141.906 375.614 139.464 378.703 136.333 380.874C133.202 383.045 129.523 384.201 125.762 384.195C120.72 384.178 115.891 382.082 112.331 378.365C108.771 374.648 106.771 369.615 106.768 364.366Z" fill="#E0E0E0"/>
<path d="M125.816 344.556C122.05 344.546 118.367 345.7 115.231 347.87C112.095 350.04 109.648 353.129 108.199 356.747C106.75 360.365 106.364 364.35 107.09 368.196C107.815 372.043 109.621 375.579 112.277 378.357C114.933 381.135 118.321 383.031 122.012 383.805C125.704 384.579 129.532 384.196 133.015 382.705C136.497 381.213 139.476 378.68 141.575 375.426C143.675 372.172 144.8 368.342 144.809 364.422C144.816 359.167 142.82 354.124 139.259 350.399C135.698 346.675 130.863 344.573 125.816 344.556Z" fill="#F5F5F5"/>
<path d="M120.166 364.451C120.165 365.608 120.493 366.74 121.109 367.704C121.725 368.667 122.602 369.419 123.629 369.864C124.655 370.309 125.786 370.426 126.877 370.202C127.968 369.978 128.97 369.423 129.758 368.605C130.545 367.788 131.082 366.746 131.301 365.611C131.52 364.476 131.41 363.299 130.986 362.229C130.562 361.158 129.843 360.243 128.92 359.598C127.996 358.954 126.91 358.609 125.798 358.607C125.059 358.606 124.328 358.756 123.645 359.049C122.963 359.342 122.342 359.772 121.819 360.314C121.297 360.857 120.881 361.502 120.598 362.211C120.314 362.921 120.168 363.682 120.166 364.451Z" fill="#263238"/>
<path d="M457.757 391.956C471.681 377.461 471.681 353.96 457.757 339.465C443.834 324.97 421.26 324.97 407.337 339.465C393.414 353.96 393.414 377.461 407.337 391.956C421.26 406.451 443.834 406.451 457.757 391.956Z" fill="#263238"/>
<path d="M432.579 340.982C427.881 340.969 423.285 342.406 419.373 345.113C415.46 347.819 412.406 351.673 410.597 356.187C408.788 360.7 408.306 365.671 409.211 370.47C410.115 375.269 412.367 379.681 415.681 383.148C418.994 386.615 423.221 388.98 427.826 389.946C432.432 390.912 437.208 390.434 441.553 388.573C445.897 386.712 449.614 383.552 452.233 379.492C454.852 375.432 456.256 370.654 456.266 365.764C456.281 359.208 453.793 352.914 449.351 348.267C444.91 343.62 438.877 340.999 432.579 340.982ZM413.559 365.698C413.563 361.778 414.684 357.948 416.78 354.692C418.877 351.436 421.854 348.901 425.336 347.408C428.818 345.915 432.646 345.532 436.337 346.306C440.028 347.081 443.416 348.979 446.07 351.759C448.724 354.539 450.526 358.077 451.247 361.924C451.968 365.772 451.576 369.755 450.121 373.37C448.666 376.986 446.212 380.07 443.072 382.232C439.932 384.395 436.245 385.538 432.48 385.518C427.452 385.483 422.641 383.38 419.096 379.667C415.552 375.954 413.561 370.933 413.559 365.698Z" fill="#E0E0E0"/>
<path d="M432.57 345.887C428.804 345.876 425.12 347.028 421.983 349.197C418.846 351.366 416.398 354.455 414.947 358.073C413.497 361.691 413.109 365.675 413.834 369.522C414.559 373.369 416.363 376.906 419.019 379.686C421.675 382.465 425.063 384.362 428.754 385.137C432.446 385.911 436.275 385.529 439.758 384.037C443.241 382.546 446.22 380.013 448.32 376.759C450.42 373.504 451.545 369.675 451.554 365.754C451.564 360.5 449.57 355.457 446.01 351.732C442.451 348.007 437.617 345.905 432.57 345.887Z" fill="#F5F5F5"/>
<path d="M426.921 365.82C426.919 366.978 427.247 368.111 427.864 369.074C428.481 370.038 429.358 370.79 430.385 371.234C431.412 371.679 432.543 371.796 433.634 371.571C434.726 371.346 435.728 370.79 436.515 369.971C437.303 369.153 437.839 368.11 438.057 366.975C438.274 365.839 438.164 364.662 437.738 363.592C437.313 362.522 436.592 361.607 435.668 360.963C434.743 360.32 433.655 359.976 432.543 359.976C431.054 359.976 429.625 360.592 428.571 361.687C427.517 362.783 426.923 364.269 426.921 365.82Z" fill="#263238"/>
<path d="M449.428 295.977C449.413 297.118 449.074 298.229 448.453 299.169C447.832 300.11 446.957 300.837 445.938 301.26C444.92 301.682 443.804 301.781 442.732 301.543C441.66 301.305 440.68 300.741 439.915 299.923C439.151 299.105 438.637 298.069 438.438 296.947C438.239 295.825 438.365 294.666 438.798 293.618C439.232 292.57 439.955 291.679 440.875 291.059C441.795 290.438 442.872 290.116 443.968 290.133C445.436 290.155 446.835 290.783 447.859 291.879C448.883 292.974 449.447 294.448 449.428 295.977Z" fill="#263238"/>
<path d="M384.186 368.165H383.655H382.078L376.023 368.287L353.769 368.662L280.328 369.6C251.64 369.91 225.664 370.107 206.87 370.135C197.472 370.135 189.859 370.135 184.606 370.041C179.353 369.947 176.425 369.825 176.497 369.647C177.188 369.763 177.888 369.81 178.587 369.788C179.966 369.788 182.011 369.844 184.633 369.853C189.886 369.853 197.499 369.853 206.897 369.797L280.346 369.103L353.787 368.296L376.05 368.081H382.105H383.682L384.186 368.165Z" fill="#263238"/>
<path d="M293.285 381.072C293.149 381.072 293.285 361.374 293.654 337.117C294.023 312.861 294.375 293.153 294.501 293.163C294.627 293.172 294.501 312.861 294.122 337.117C293.744 361.374 293.411 381.072 293.285 381.072Z" fill="#263238"/>
<path d="M342.722 254.433C342.803 254.536 336.992 260.061 329.739 266.777C322.486 273.493 316.539 278.849 316.449 278.745C316.359 278.642 322.18 273.117 329.433 266.411C336.686 259.704 342.632 254.339 342.722 254.433Z" fill="#F5F5F5"/>
<path d="M339.866 265.069C339.588 265.405 339.287 265.718 338.965 266.007C338.371 266.598 337.497 267.433 336.397 268.446C334.208 270.491 331.145 273.249 327.685 276.213C324.225 279.177 321.026 281.785 318.675 283.632C317.503 284.57 316.548 285.283 315.882 285.78C315.547 286.059 315.188 286.304 314.809 286.512C315.101 286.189 315.421 285.894 315.764 285.63L318.467 283.36C320.756 281.484 323.873 278.802 327.378 275.856C330.883 272.911 333.929 270.172 336.172 268.202L338.875 265.885C339.176 265.577 339.509 265.304 339.866 265.069Z" fill="#F5F5F5"/>
<path d="M266.561 255.605C266.633 255.718 258.155 261.871 247.64 269.356C237.125 276.841 228.512 282.816 228.44 282.704C228.367 282.591 236.837 276.438 247.361 268.953C257.884 261.467 266.489 255.492 266.561 255.605Z" fill="#F5F5F5"/>
<path d="M274.454 255.23C274.118 255.576 273.753 255.889 273.363 256.168L270.3 258.625L260.182 266.711L250.154 274.918L247.117 277.413C246.758 277.737 246.372 278.025 245.964 278.276C246.282 277.909 246.628 277.571 247 277.263C247.685 276.635 248.694 275.744 249.946 274.646C252.451 272.47 255.956 269.506 259.857 266.326C263.759 263.147 267.417 260.333 270.066 258.344C271.39 257.35 272.471 256.562 273.228 256.027C273.613 255.723 274.023 255.456 274.454 255.23Z" fill="#F5F5F5"/>
<path d="M147.241 282.216C147.16 282.247 147.075 282.266 146.989 282.272L146.268 282.385L143.475 282.779C141.052 283.126 137.547 283.642 133.24 284.411C122.006 286.417 110.907 289.171 100.011 292.656C93.6319 294.701 87.6403 296.905 82.2523 299.091C77.4518 300.935 72.7743 303.11 68.2508 305.6C65.2136 307.299 62.3977 309.395 59.8715 311.838C59.4119 312.26 59.0425 312.673 58.7182 313.02C58.3938 313.367 58.1145 313.677 57.9073 313.958L57.4117 314.521C57.3589 314.587 57.3017 314.65 57.2405 314.708C57.2405 314.708 57.2405 314.624 57.3757 314.493L57.8352 313.892C58.0334 313.63 58.2857 313.311 58.6101 312.954C58.9344 312.598 59.2948 312.166 59.7453 311.726C62.2406 309.216 65.0465 307.065 68.0886 305.328C72.6058 302.786 77.2873 300.573 82.0991 298.706C87.5051 296.492 93.4878 294.26 99.8759 292.225C110.782 288.728 121.905 286.014 133.168 284.101C137.493 283.379 141.007 282.91 143.439 282.619L146.241 282.319L146.971 282.254C147.058 282.225 147.15 282.212 147.241 282.216Z" fill="#F5F5F5"/>
<path d="M371.644 233.365H371.275L370.185 233.177L366.022 232.427C362.418 231.789 357.156 230.926 350.642 230.11C333.673 227.916 316.538 227.463 299.483 228.759C279.508 230.392 261.741 234.538 249.027 237.783C242.657 239.434 237.531 240.869 233.99 241.882L229.908 243.036L228.845 243.327C228.725 243.368 228.601 243.396 228.476 243.411C228.591 243.354 228.712 243.31 228.836 243.28L229.881 242.942L233.936 241.694C237.468 240.625 242.585 239.134 248.946 237.445C261.668 234.115 279.445 229.941 299.465 228.272C316.547 226.965 333.712 227.465 350.696 229.763C357.219 230.626 362.463 231.545 366.076 232.239C367.878 232.577 369.275 232.887 370.221 233.074L371.302 233.309C371.418 233.315 371.533 233.334 371.644 233.365Z" fill="#F5F5F5"/>
<path d="M220.394 287.028C219.998 287.022 219.603 286.981 219.213 286.906C218.465 286.812 217.411 286.672 216.033 286.606C212.523 286.387 209.004 286.777 205.617 287.76C203.772 288.321 202.038 289.223 200.5 290.424C199.255 291.416 198.214 292.656 197.436 294.072C196.736 295.398 196.284 296.849 196.103 298.35C196.103 298.35 196.103 298.237 196.103 298.031C196.098 297.717 196.116 297.404 196.157 297.093C196.312 295.971 196.654 294.885 197.166 293.885C197.93 292.397 198.982 291.091 200.256 290.048C201.825 288.78 203.606 287.825 205.509 287.234C208.944 286.234 212.524 285.885 216.078 286.203C217.152 286.288 218.22 286.442 219.276 286.662C219.66 286.742 220.035 286.865 220.394 287.028Z" fill="#F5F5F5"/>
<path d="M286.446 299.757C286.446 299.897 273.345 300.817 257.172 301.82C240.999 302.824 227.881 303.527 227.872 303.396C227.863 303.265 240.963 302.336 257.145 301.332C273.327 300.329 286.437 299.625 286.446 299.757Z" fill="#F5F5F5"/>
<path d="M139.042 311.088C138.964 311.097 138.886 311.097 138.808 311.088L138.15 310.938C137.574 310.825 136.745 310.553 135.637 310.375C132.531 309.774 129.38 309.46 126.221 309.437C121.54 309.347 116.864 309.832 112.292 310.881C106.671 312.075 101.31 314.34 96.4791 317.56C91.7406 320.925 87.6564 325.193 84.4417 330.138C81.8077 334.169 79.7443 338.572 78.3149 343.214C77.3493 346.344 76.6942 349.569 76.3598 352.838C76.1886 353.992 76.1976 354.902 76.1345 355.511L76.0804 356.205C76.0896 356.287 76.0896 356.368 76.0804 356.449C76.067 356.369 76.067 356.286 76.0804 356.205V355.511C76.0804 354.892 76.0804 353.982 76.2156 352.819C76.4797 349.525 77.0839 346.27 78.0176 343.111C79.4139 338.417 81.4629 333.961 84.0993 329.885C87.3127 324.834 91.4302 320.474 96.2268 317.044C101.099 313.787 106.515 311.51 112.193 310.328C116.803 309.297 121.516 308.843 126.23 308.977C129.405 309.046 132.566 309.426 135.673 310.112C136.781 310.319 137.601 310.628 138.177 310.769L138.826 310.966L139.042 311.088Z" fill="#F5F5F5"/>
<path d="M469.637 245.812L458.564 270.2L452.617 274.046C451.97 274.28 451.426 274.75 451.086 275.369L449.176 280.462L454.915 281.269L456.086 278.717C457.216 279.14 458.443 279.186 459.599 278.85C460.755 278.514 461.782 277.812 462.537 276.841L479.449 249.508L469.637 245.812Z" fill="#FFBE9D"/>
<path d="M448.401 279.289C448.401 279.289 452.122 288.294 453.23 287.966C454.338 287.638 454.753 286.925 454.491 286.268C454.23 285.612 452.122 281.015 452.122 281.015C452.122 281.015 454.275 285.34 455.014 285.443C455.753 285.546 456.474 284.983 456.275 284.345C456.077 283.707 454.473 280.021 454.473 280.021C454.473 280.021 456.275 284.148 456.897 283.895C457.519 283.642 457.942 283.895 457.843 282.957C457.744 282.019 455.645 278.389 455.645 278.389L449.428 278.033L448.401 279.289Z" fill="#FFBE9D"/>
<path d="M481.332 403.049H481.242C477.728 402.364 469.043 399.944 464.267 392.309C461.087 387.216 460.852 380.443 460.663 375.012C459.942 353.982 458.627 301.492 458.249 285.902C458.168 284.154 457.438 282.507 456.213 281.307C454.989 280.108 453.364 279.451 451.683 279.474C450.002 279.497 448.395 280.199 447.201 281.431C446.007 282.664 445.32 284.331 445.283 286.081V295.62H443.481V286.09C443.517 283.846 444.39 281.705 445.916 280.121C447.443 278.537 449.501 277.634 451.657 277.603C453.812 277.573 455.894 278.417 457.461 279.958C459.028 281.498 459.957 283.614 460.051 285.855C460.429 301.445 461.744 353.936 462.456 374.965C462.636 380.171 462.862 386.644 465.772 391.305C468.808 396.164 474.674 399.86 481.485 401.211L528.914 400.742C535.068 399.419 539.726 397.412 543.934 391.568C546.15 388.482 547.754 384.355 548.988 378.596C551.583 366.523 551.502 353.748 551.43 341.394C551.224 332.566 551.477 323.733 552.187 314.933C552.592 310.797 553.259 306.491 555.358 302.955C557.35 299.616 561.323 296.699 565.359 298.265L564.738 300.029C561.801 298.912 558.557 301.164 556.89 303.978C554.989 307.167 554.367 311.238 553.98 315.159C553.276 323.893 553.026 332.66 553.232 341.423C553.304 353.879 553.385 366.749 550.754 379.046C549.457 385.077 547.754 389.42 545.348 392.722C540.789 399.081 535.78 401.229 529.13 402.636H528.959L481.332 403.049Z" fill="#263238"/>
<path d="M455.564 276.429C454.942 279.036 454.565 281.7 454.437 284.383C454.437 284.73 454.437 285.143 454.726 285.321C455.014 285.499 455.428 284.993 455.681 284.683C456.14 284.139 457.852 281.09 457.852 281.09C459.041 280.976 460.148 280.411 460.963 279.504C461.779 278.596 462.246 277.408 462.276 276.166" fill="#FFBE9D"/>
<path d="M462.276 276.166C462.309 276.349 462.309 276.536 462.276 276.719C462.235 277.237 462.113 277.743 461.916 278.22C461.606 278.951 461.133 279.594 460.537 280.096C459.758 280.738 458.822 281.141 457.834 281.259L457.969 281.175C457.42 282.113 456.834 283.201 456.167 284.28C456.059 284.439 455.96 284.599 455.834 284.758C455.708 284.917 455.609 285.039 455.473 285.19C455.336 285.362 455.15 285.487 454.942 285.546C454.816 285.558 454.69 285.529 454.581 285.461C454.473 285.394 454.387 285.292 454.338 285.171C454.225 284.805 454.197 284.415 454.257 284.036C454.257 283.689 454.302 283.351 454.329 283.023C454.422 281.859 454.572 280.7 454.78 279.552C454.951 278.567 455.131 277.779 455.275 277.245C455.322 276.957 455.411 276.679 455.537 276.419C455.524 276.708 455.482 276.994 455.41 277.273C455.32 277.826 455.176 278.614 455.041 279.59C454.906 280.565 454.762 281.747 454.672 283.051C454.672 283.379 454.627 283.717 454.609 284.055C454.565 284.368 454.586 284.688 454.672 284.993C454.726 285.105 454.825 285.18 454.879 285.161C455.007 285.105 455.121 285.018 455.212 284.908C455.32 284.786 455.437 284.636 455.546 284.495C455.655 284.354 455.757 284.207 455.852 284.055C456.519 282.995 457.122 281.935 457.654 280.978L457.699 280.893H457.789C458.706 280.793 459.578 280.433 460.312 279.852C460.888 279.385 461.356 278.789 461.681 278.108C461.956 277.488 462.155 276.836 462.276 276.166Z" fill="#EB996E"/>
<path d="M530.013 396.539L531.176 401.623C531.176 401.623 539.167 412.429 541.636 411.941C543.249 411.594 541.267 408.771 538.221 400.573L537.582 397.177L530.013 396.539Z" fill="#F75D34"/>
<path d="M541.961 410.309C541.948 410.363 541.926 410.413 541.897 410.459C541.813 410.598 541.695 410.711 541.555 410.788C541.337 410.911 541.09 410.966 540.843 410.947C540.518 410.918 540.207 410.799 539.942 410.6C538.511 409.402 537.165 408.098 535.915 406.698C534.637 405.314 533.434 403.858 532.311 402.336C531.887 401.755 531.545 401.276 531.329 400.939L531.067 400.545C531.013 400.46 530.986 400.404 530.995 400.404L531.094 400.526L531.374 400.901L532.392 402.271C533.293 403.415 534.518 404.963 535.996 406.585C537.241 407.977 538.568 409.286 539.969 410.506C540.179 410.686 540.432 410.802 540.7 410.841C540.969 410.881 541.243 410.843 541.492 410.731C541.684 410.64 541.846 410.494 541.961 410.309Z" fill="#263238"/>
<path d="M540.825 406.829C540.825 406.829 540.573 406.829 540.177 406.829C539.667 406.916 539.179 407.111 538.744 407.402C538.293 407.665 537.919 408.051 537.663 408.518C537.474 408.884 537.419 409.137 537.392 409.137C537.401 408.904 537.46 408.677 537.564 408.471C537.804 407.961 538.188 407.539 538.663 407.261C539.116 406.958 539.632 406.771 540.168 406.717C540.392 406.699 540.618 406.737 540.825 406.829Z" fill="#263238"/>
<path d="M533.266 404.278C533.266 404.278 533.347 403.912 533.41 403.34C533.491 402.573 533.35 401.799 533.005 401.117C532.674 400.427 532.141 399.865 531.482 399.513C531.192 399.374 530.89 399.264 530.581 399.185C530.664 399.17 530.75 399.17 530.833 399.185C531.061 399.225 531.282 399.297 531.491 399.4C532.196 399.734 532.769 400.31 533.113 401.033C533.466 401.745 533.595 402.556 533.482 403.349C533.448 403.585 533.394 403.818 533.32 404.043C533.313 404.124 533.295 404.203 533.266 404.278Z" fill="#263238"/>
<path d="M530.527 397.402C530.75 397.908 530.898 398.446 530.968 398.997C531.113 399.935 531.266 400.61 531.23 400.629C531.016 400.119 530.876 399.578 530.815 399.025C530.689 398.125 530.482 397.421 530.527 397.402Z" fill="#263238"/>
<path d="M538.366 401.248C538.366 401.295 537.906 401.248 537.374 401.417C536.843 401.586 536.473 401.755 536.41 401.717C536.663 401.478 536.975 401.319 537.311 401.258C537.654 401.145 538.021 401.142 538.366 401.248Z" fill="#263238"/>
<path d="M538.528 402.121C538.528 402.167 538.14 402.121 537.699 402.243C537.257 402.364 536.933 402.561 536.906 402.524C537.095 402.282 537.366 402.125 537.663 402.083C537.946 401.986 538.253 402 538.528 402.121Z" fill="#263238"/>
<path d="M539.167 403.209C538.868 403.179 538.566 403.179 538.266 403.209C537.994 403.299 537.731 403.419 537.483 403.565C537.563 403.427 537.672 403.309 537.801 403.22C537.93 403.131 538.077 403.073 538.23 403.049C538.388 403.001 538.554 402.991 538.716 403.018C538.878 403.046 539.033 403.111 539.167 403.209Z" fill="#263238"/>
<path d="M537.816 400.882C537.726 400.895 537.635 400.895 537.546 400.882C537.308 400.832 537.073 400.767 536.843 400.685C536.497 400.56 536.162 400.403 535.843 400.216C535.663 400.113 535.482 400.001 535.293 399.869C535.184 399.801 535.091 399.706 535.022 399.594C534.953 399.482 534.91 399.355 534.897 399.222C534.908 399.152 534.933 399.085 534.971 399.026C535.009 398.967 535.059 398.917 535.117 398.88C535.175 398.843 535.24 398.819 535.308 398.81C535.375 398.801 535.444 398.807 535.509 398.828C535.724 398.904 535.914 399.04 536.059 399.222C536.32 399.482 536.567 399.758 536.798 400.048C536.996 400.301 537.14 400.507 537.239 400.657C537.292 400.732 537.334 400.814 537.365 400.901C537.365 400.901 537.122 400.601 536.708 400.123C536.509 399.888 536.257 399.616 535.96 399.325C535.828 399.171 535.66 399.055 535.473 398.988C535.293 398.941 535.059 399.035 535.05 399.232C535.066 399.336 535.105 399.436 535.162 399.524C535.22 399.611 535.295 399.684 535.383 399.738C535.563 399.869 535.744 399.982 535.915 400.095C536.224 400.279 536.546 400.439 536.879 400.573C537.447 400.779 537.816 400.854 537.816 400.882Z" fill="#263238"/>
<path d="M537.392 400.779C537.383 400.695 537.383 400.61 537.392 400.526C537.392 400.357 537.392 400.123 537.446 399.832C537.484 399.486 537.569 399.148 537.699 398.828C537.778 398.635 537.885 398.455 538.014 398.294C538.082 398.188 538.182 398.11 538.299 398.072C538.415 398.035 538.541 398.04 538.654 398.087C538.747 398.163 538.817 398.266 538.855 398.382C538.894 398.499 538.899 398.624 538.87 398.744C538.836 398.95 538.778 399.152 538.699 399.344C538.554 399.66 538.359 399.949 538.122 400.198C537.968 400.364 537.799 400.515 537.618 400.648C537.492 400.742 537.41 400.789 537.401 400.779C537.392 400.77 537.672 400.545 538.041 400.123C538.254 399.873 538.43 399.591 538.564 399.288C538.638 399.108 538.689 398.919 538.717 398.725C538.74 398.636 538.739 398.543 538.714 398.455C538.688 398.367 538.639 398.288 538.573 398.228C538.429 398.134 538.248 398.228 538.122 398.406C538.005 398.556 537.905 398.719 537.825 398.894C537.698 399.194 537.607 399.509 537.555 399.832C537.521 400.151 537.466 400.468 537.392 400.779Z" fill="#263238"/>
<g opacity="0.4">
<path d="M531.175 401.623L530.617 399.185C530.617 399.185 532.572 399.56 533.077 401.061C533.38 401.892 533.512 402.78 533.464 403.668L537.717 408.443C537.717 408.443 538.789 406.267 540.717 406.792C540.717 406.792 542.24 410.272 542.195 411.144C542.15 412.016 541.168 411.913 540.825 411.754C539.421 410.899 538.138 409.845 537.014 408.621C534.762 406.21 532.266 403.124 531.175 401.623Z" fill="black"/>
</g>
<path d="M490.297 399.11V392.328L502.506 392.178L502.659 402.092L501.902 402.158C498.541 402.393 484.783 403.096 482.522 402.43C479.954 401.67 490.297 399.11 490.297 399.11Z" fill="#F75D34"/>
<g opacity="0.4">
<path d="M498.19 402.055C498.357 400.981 498.899 400.008 499.713 399.325C500.514 398.65 501.531 398.315 502.56 398.387L502.605 401.933L498.19 402.055Z" fill="black"/>
</g>
<g opacity="0.4">
<path d="M485.243 400.526C485.243 400.526 481.639 401.661 482.08 402.28C482.522 402.899 496.496 402.712 502.614 402.064V401.783L486.396 402.149C486.396 402.149 485.954 400.573 485.243 400.526Z" fill="black"/>
</g>
<path d="M502.758 401.802H502.551L501.947 401.849L499.731 401.98C497.857 402.074 495.271 402.167 492.406 402.205C489.54 402.243 487 402.205 485.08 402.205L482.864 402.139H482.26H482.044H482.936H485.152C487.027 402.139 489.657 402.139 492.478 402.139C495.298 402.139 497.884 402.017 499.794 401.952L502.019 401.867H502.83L502.758 401.802Z" fill="#263238"/>
<path d="M486.351 402.402C486.247 402.02 486.102 401.652 485.918 401.305C485.692 400.984 485.436 400.689 485.152 400.423C485.536 400.565 485.857 400.849 486.053 401.22C486.285 401.564 486.391 401.984 486.351 402.402Z" fill="#263238"/>
<path d="M489.928 400.423C489.928 400.423 489.721 400.226 489.531 399.935C489.342 399.644 489.234 399.391 489.27 399.372C489.306 399.353 489.477 399.56 489.657 399.851C489.838 400.141 489.964 400.395 489.928 400.423Z" fill="#263238"/>
<path d="M490.91 399.86C490.91 399.86 490.685 399.766 490.477 399.569C490.27 399.372 490.108 399.194 490.135 399.157C490.162 399.119 490.36 399.26 490.567 399.457C490.775 399.654 490.937 399.832 490.91 399.86Z" fill="#263238"/>
<path d="M491.514 398.65C491.312 398.728 491.097 398.76 490.883 398.744C490.531 398.744 490.243 398.744 490.243 398.678C490.243 398.612 490.522 398.594 490.874 398.584C491.225 398.575 491.514 398.65 491.514 398.65Z" fill="#263238"/>
<path d="M491.721 397.806C491.502 397.93 491.261 398.006 491.013 398.029C490.765 398.051 490.515 398.02 490.279 397.937C490.518 397.9 490.759 397.882 491 397.881C491.238 397.835 491.479 397.81 491.721 397.806Z" fill="#263238"/>
<path d="M489.495 399.316C489.236 399.361 488.971 399.361 488.711 399.316C488.427 399.282 488.146 399.219 487.873 399.128C487.706 399.086 487.546 399.019 487.396 398.931C487.302 398.88 487.231 398.793 487.198 398.688C487.183 398.627 487.186 398.563 487.207 398.504C487.228 398.446 487.266 398.395 487.315 398.359C487.614 398.196 487.958 398.148 488.288 398.223C488.618 398.299 488.911 398.493 489.117 398.772C489.238 398.93 489.327 399.112 489.378 399.307C489.378 399.447 489.378 399.532 489.378 399.532C489.298 399.28 489.176 399.045 489.018 398.838C488.838 398.626 488.603 398.473 488.342 398.397C488.044 398.299 487.721 398.326 487.441 398.472C487.324 398.575 487.369 398.725 487.513 398.809C487.654 398.887 487.802 398.95 487.955 398.997C488.219 399.089 488.49 399.158 488.765 399.203C489.243 399.297 489.495 399.288 489.495 399.316Z" fill="#263238"/>
<path d="M489.297 399.363C489.196 399.192 489.161 398.988 489.198 398.791C489.221 398.579 489.292 398.377 489.405 398.2C489.468 398.075 489.561 397.97 489.674 397.894C489.788 397.819 489.919 397.775 490.054 397.768C490.133 397.786 490.202 397.835 490.248 397.905C490.293 397.975 490.311 398.06 490.297 398.143C490.283 398.274 490.24 398.399 490.171 398.509C490.071 398.692 489.947 398.86 489.802 399.006C489.558 399.26 489.369 399.363 489.36 399.344C489.351 399.325 489.513 399.194 489.73 398.941C489.852 398.786 489.961 398.619 490.054 398.444C490.153 398.265 490.225 397.956 490.054 397.918C489.883 397.881 489.657 398.115 489.54 398.275C489.437 398.438 489.364 398.619 489.324 398.809C489.298 398.993 489.289 399.178 489.297 399.363Z" fill="#263238"/>
<path d="M502.497 398.331C502.497 398.331 502.145 398.331 501.596 398.331C500.877 398.425 500.197 398.723 499.632 399.194C499.08 399.681 498.663 400.312 498.424 401.023C498.253 401.567 498.235 401.961 498.208 401.961C498.191 401.878 498.191 401.791 498.208 401.708C498.226 401.473 498.265 401.241 498.325 401.014C498.544 400.277 498.967 399.625 499.541 399.138C500.124 398.648 500.832 398.347 501.578 398.275C501.803 398.255 502.029 398.255 502.253 398.275C502.337 398.278 502.42 398.297 502.497 398.331Z" fill="#263238"/>
<path d="M501.163 393.022C501.259 393.888 501.304 394.758 501.298 395.63C501.35 396.501 501.35 397.375 501.298 398.247C501.209 397.377 501.163 396.504 501.163 395.63C501.117 394.761 501.117 393.891 501.163 393.022Z" fill="#263238"/>
<path d="M496.64 400.835C496.051 400.985 495.445 401.054 494.838 401.042C494.235 401.083 493.629 401.042 493.036 400.92C493.036 400.873 493.838 400.92 494.838 400.92C495.838 400.92 496.631 400.789 496.64 400.835Z" fill="#263238"/>
<path d="M499.028 400.798C499.028 400.798 498.965 400.976 498.893 401.164C498.821 401.351 498.767 401.53 498.722 401.53C498.676 401.53 498.658 401.323 498.722 401.108C498.785 400.892 499.001 400.77 499.028 400.798Z" fill="#263238"/>
<path d="M499.92 399.588C499.92 399.588 499.866 399.757 499.749 399.888C499.632 400.019 499.496 400.113 499.469 400.076C499.442 400.038 499.469 399.916 499.641 399.785C499.812 399.654 499.893 399.588 499.92 399.588Z" fill="#263238"/>
<path d="M501.199 399.072C501.199 399.072 501.028 399.072 500.857 399.185C500.686 399.297 500.551 399.353 500.515 399.325C500.479 399.297 500.578 399.119 500.803 399.035C501.028 398.95 501.217 399.025 501.199 399.072Z" fill="#263238"/>
<path d="M502.118 398.8C502.118 398.8 502.064 398.913 501.965 398.95C501.866 398.988 501.767 398.997 501.749 398.95C501.731 398.903 501.803 398.838 501.902 398.8C502.001 398.763 502.1 398.763 502.118 398.8Z" fill="#263238"/>
<path d="M540.6 397.534L518.85 264.394L485.297 269.713L489.189 396.539L504.722 397.918L503.533 286.268L527.436 398.04L540.6 397.534Z" fill="#455A64"/>
<path d="M522.238 274.327L517.787 235.063L524.517 246.009L535.275 236.32L522.661 218.62C520.365 216.113 517.535 214.204 514.399 213.048C512.734 212.427 510.986 212.079 509.218 212.016C505.148 213.353 500.782 213.353 496.712 212.016C496 212.101 494.91 212.204 493.487 212.41C491.073 212.747 488.749 213.585 486.652 214.874C484.555 216.163 482.728 217.877 481.278 219.914L468.331 245.794L479.422 250.165L485.297 239.19L484.206 275.622L494.649 278.004L502.614 272.011L513.606 278.004L522.238 274.327Z" fill="#263238"/>
<path d="M485.873 225.448C485.99 225.448 485.873 231.517 485.612 238.984C485.351 246.45 485.026 252.51 484.9 252.5C484.774 252.491 484.9 246.441 485.17 238.965C485.441 231.489 485.756 225.448 485.873 225.448Z" fill="#455A64"/>
<path d="M517.03 227.84C517.481 230.43 517.782 233.045 517.931 235.672C518.246 238.283 518.418 240.911 518.444 243.542C517.984 240.953 517.668 238.338 517.498 235.71C517.198 233.098 517.042 230.471 517.03 227.84Z" fill="#455A64"/>
<path d="M499.559 178.905C501.267 178.409 503.031 178.156 504.803 178.154C505.692 178.156 506.571 178.344 507.388 178.706C508.205 179.069 508.944 179.599 509.561 180.265C510.15 181.221 510.826 182.116 511.579 182.938C512.651 183.82 514.354 184.111 514.714 185.48C515.075 186.85 513.651 188.191 513.75 189.645C513.904 190.463 514.265 191.224 514.795 191.849C515.058 192.162 515.247 192.534 515.347 192.937C515.447 193.339 515.455 193.76 515.372 194.166C515.147 194.794 514.543 195.198 514.246 195.798C513.786 196.736 514.156 197.834 514.011 198.856C513.849 199.598 513.486 200.277 512.966 200.812C512.446 201.347 511.789 201.717 511.074 201.876C509.637 202.167 508.16 202.167 506.722 201.876" fill="#263238"/>
<path d="M498.253 179.543C497.077 179.22 495.849 179.16 494.649 179.364C494.054 179.48 493.504 179.774 493.067 180.211C492.63 180.647 492.325 181.207 492.189 181.822C492.081 182.591 492.315 183.454 491.901 184.101C491.487 184.748 490.387 184.87 489.847 185.546C488.702 186.972 490.91 189.457 489.757 190.883C489.45 191.268 488.964 191.455 488.621 191.821C488.357 192.152 488.207 192.565 488.194 192.995C488.181 193.425 488.306 193.847 488.549 194.194C488.805 194.534 489.13 194.81 489.501 195.003C489.872 195.196 490.279 195.301 490.694 195.31C491.522 195.322 492.344 195.156 493.108 194.823C495.797 193.902 498.051 191.954 499.415 189.373C500.062 188.081 500.342 186.623 500.222 185.171C500.103 183.72 499.588 182.333 498.74 181.175" fill="#263238"/>
<path d="M509.371 189.213L509.696 213.864L497.83 214.117C497.622 212.691 497.181 207.148 497.181 207.148C497.181 207.148 492.207 206.867 491.658 201.773C491.387 199.297 491.234 194.147 491.153 189.495C491.106 187.016 491.994 184.616 493.626 182.81C495.258 181.005 497.504 179.936 499.884 179.833C501.103 179.782 502.319 179.986 503.462 180.432C504.604 180.879 505.648 181.56 506.533 182.435C507.417 183.31 508.125 184.36 508.612 185.525C509.1 186.689 509.358 187.943 509.371 189.213Z" fill="#FFBE9D"/>
<path d="M497.172 207.101C499.436 206.912 501.595 206.024 503.371 204.55C503.371 204.55 502.217 208.377 497.289 208.424L497.172 207.101Z" fill="#EB996E"/>
<path d="M493.379 192.496C493.395 192.687 493.482 192.864 493.622 192.988C493.762 193.113 493.943 193.175 494.126 193.162C494.216 193.16 494.304 193.139 494.386 193.101C494.468 193.063 494.541 193.008 494.602 192.94C494.664 192.872 494.711 192.792 494.742 192.704C494.774 192.617 494.788 192.524 494.784 192.431C494.766 192.241 494.678 192.066 494.539 191.941C494.399 191.817 494.219 191.754 494.036 191.765C493.946 191.766 493.858 191.786 493.775 191.824C493.693 191.861 493.619 191.916 493.558 191.984C493.496 192.053 493.449 192.133 493.418 192.221C493.387 192.309 493.374 192.403 493.379 192.496Z" fill="#263238"/>
<path d="M492.442 191.99C492.541 192.074 493.027 191.605 493.784 191.53C494.541 191.455 495.127 191.793 495.199 191.69C495.271 191.586 495.127 191.474 494.874 191.324C494.526 191.123 494.126 191.038 493.73 191.08C493.339 191.121 492.971 191.288 492.676 191.558C492.46 191.765 492.397 191.952 492.442 191.99Z" fill="#263238"/>
<path d="M500.956 192.027C500.972 192.218 501.059 192.395 501.199 192.519C501.339 192.644 501.52 192.706 501.704 192.693C501.794 192.692 501.883 192.672 501.965 192.634C502.047 192.597 502.121 192.542 502.183 192.474C502.244 192.405 502.292 192.325 502.322 192.237C502.353 192.149 502.366 192.055 502.362 191.962C502.343 191.772 502.255 191.597 502.116 191.472C501.977 191.348 501.797 191.285 501.614 191.296C501.524 191.298 501.436 191.319 501.354 191.357C501.273 191.395 501.199 191.45 501.138 191.518C501.077 191.586 501.029 191.666 500.998 191.754C500.967 191.841 500.952 191.934 500.956 192.027Z" fill="#263238"/>
<path d="M499.857 191.352C499.956 191.436 500.442 190.977 501.199 190.902C501.956 190.827 502.542 191.155 502.614 191.052C502.686 190.949 502.542 190.845 502.28 190.686C501.935 190.484 501.539 190.399 501.145 190.442C500.752 190.486 500.382 190.652 500.082 190.921C499.875 191.146 499.812 191.352 499.857 191.352Z" fill="#263238"/>
<path d="M497.685 197.458C497.277 197.367 496.859 197.332 496.442 197.355C496.244 197.355 496.064 197.355 496.019 197.205C495.98 196.999 496.005 196.786 496.091 196.595C496.217 196.089 496.361 195.564 496.505 195.01C496.916 193.666 497.218 192.289 497.406 190.892C496.908 192.204 496.505 193.552 496.199 194.926C496.064 195.479 495.928 196.014 495.802 196.52C495.712 196.775 495.712 197.054 495.802 197.308C495.835 197.378 495.883 197.438 495.943 197.483C496.002 197.529 496.071 197.559 496.145 197.571C496.252 197.584 496.361 197.584 496.469 197.571C496.877 197.588 497.286 197.551 497.685 197.458Z" fill="#263238"/>
<path d="M499.956 197.768C499.83 197.768 499.956 198.622 499.271 199.297C498.586 199.972 497.748 199.972 497.757 200.094C497.766 200.216 497.965 200.244 498.334 200.216C498.813 200.168 499.262 199.95 499.604 199.597C499.929 199.257 500.116 198.8 500.127 198.321C500.118 197.918 500.055 197.759 499.956 197.768Z" fill="#263238"/>
<path d="M499.37 188.313C499.46 188.519 500.199 188.313 501.1 188.313C502.001 188.313 502.731 188.51 502.83 188.313C502.929 188.116 502.731 188.022 502.425 187.844C502.015 187.633 501.566 187.521 501.109 187.516C500.65 187.505 500.195 187.611 499.785 187.825C499.469 188.031 499.325 188.21 499.37 188.313Z" fill="#263238"/>
<path d="M492.505 189.692C492.649 189.851 493.153 189.617 493.775 189.542C494.397 189.467 494.937 189.542 495.045 189.345C495.154 189.148 494.982 189.073 494.739 188.932C494.409 188.765 494.039 188.703 493.676 188.753C493.312 188.803 492.971 188.963 492.694 189.213C492.487 189.42 492.433 189.607 492.505 189.692Z" fill="#263238"/>
<path d="M508.083 193.228C508.164 193.228 511.354 191.84 511.579 195.338C511.804 198.837 508.389 198.349 508.38 198.256C508.371 198.162 508.083 193.228 508.083 193.228Z" fill="#FFBE9D"/>
<path d="M509.317 196.839C509.317 196.839 509.38 196.839 509.479 196.914C509.622 196.97 509.779 196.97 509.921 196.914C510.128 196.754 510.29 196.539 510.392 196.292C510.493 196.045 510.53 195.774 510.498 195.507C510.489 195.209 510.415 194.917 510.281 194.654C510.155 194.4 509.993 194.232 509.804 194.213C509.735 194.2 509.664 194.212 509.603 194.248C509.542 194.284 509.495 194.341 509.47 194.41C509.47 194.504 509.47 194.579 509.47 194.579C509.47 194.579 509.398 194.579 509.407 194.382C509.427 194.295 509.471 194.217 509.534 194.157C509.575 194.116 509.625 194.084 509.68 194.065C509.734 194.046 509.792 194.038 509.849 194.044C509.988 194.064 510.12 194.12 510.234 194.207C510.347 194.294 510.438 194.409 510.498 194.541C510.654 194.828 510.743 195.15 510.759 195.479C510.798 195.79 510.747 196.107 510.612 196.388C510.477 196.668 510.265 196.901 510.002 197.055C509.914 197.089 509.819 197.101 509.726 197.092C509.632 197.082 509.542 197.05 509.461 196.999C509.326 196.924 509.308 196.839 509.317 196.839Z" fill="#EB996E"/>
<path d="M496.694 180.096C497.085 179.555 497.571 179.097 498.127 178.745C498.776 178.355 499.505 178.13 500.253 178.089C501.768 177.941 503.295 178.087 504.758 178.52C506.219 178.954 507.46 179.963 508.218 181.334C508.759 182.422 508.912 183.754 509.75 184.627C510.425 185.321 511.489 185.649 511.876 186.559C512.561 188.172 510.507 190.02 511.173 191.643C511.332 191.907 511.442 192.2 511.498 192.506C511.492 192.694 511.432 192.876 511.326 193.028C511.22 193.18 511.073 193.295 510.903 193.359C510.565 193.484 510.207 193.538 509.849 193.519C508.587 193.519 507.047 193.359 506.515 192.159C505.984 190.958 506.677 189.589 505.957 188.641C505.236 187.694 504.281 188.144 503.416 187.619C503.048 187.399 502.709 187.131 502.407 186.821C501.834 186.791 501.268 186.683 500.722 186.503C500.026 186.296 499.433 185.819 499.064 185.171C498.685 184.448 498.685 183.51 498.163 182.929C497.64 182.347 496.478 182.244 496.199 181.428C496.133 181.18 496.146 180.917 496.236 180.677C496.325 180.437 496.486 180.233 496.694 180.096Z" fill="#263238"/>
<path d="M468.358 244.565L467.313 246.694C467.18 246.967 467.1 247.265 467.079 247.57C467.057 247.876 467.094 248.182 467.187 248.473C467.28 248.763 467.427 249.032 467.621 249.262C467.814 249.493 468.049 249.682 468.313 249.818L475.575 253.513C476.084 253.779 476.672 253.83 477.215 253.655C477.759 253.48 478.218 253.093 478.494 252.575L480.098 249.499L468.358 244.565Z" fill="#263238"/>
<path d="M542.51 214.933L535.888 216.678L535.518 214.896C535.282 214.024 535.336 213.095 535.672 212.26C535.723 212.112 535.753 211.957 535.762 211.8C535.294 210.427 534.731 209.092 534.077 207.805C533.554 206.698 534.077 205.929 534.419 206.388C535.014 207.185 536.852 210.731 537.284 211.003C537.717 211.275 537.176 209.38 537.176 209.38C535.888 205.347 535.536 204.784 536.212 204.503C536.888 204.221 538.915 210.178 538.915 210.178C538.915 210.178 538.645 209.333 539.248 209.043C539.852 208.752 540.294 209.549 540.294 209.549C540.14 209.127 540.735 208.949 540.735 208.949C542.267 208.893 542.537 214.98 542.537 214.98L535.888 216.678L536.609 240.597L534.194 237.905L526.085 244.846L534.194 252.566C535.038 253.31 536.036 253.841 537.109 254.119C538.182 254.398 539.303 254.415 540.384 254.17C542.156 253.786 543.725 252.722 544.778 251.189C545.832 249.656 546.293 247.767 546.069 245.897L542.51 214.933Z" fill="#FFBE9D"/>
<path d="M537.266 215.956C537.266 215.956 537.528 215.534 537.897 214.839C538.117 214.43 538.307 214.004 538.465 213.564C538.555 213.32 538.636 213.057 538.708 212.785C538.8 212.531 538.831 212.257 538.798 211.988C538.786 211.925 538.757 211.868 538.714 211.822C538.67 211.777 538.615 211.747 538.555 211.735C538.421 211.733 538.29 211.78 538.185 211.866C537.943 212.044 537.72 212.249 537.519 212.476C537.197 212.838 536.935 213.253 536.744 213.705L536.69 213.845L536.609 213.733C536.425 213.491 536.203 213.285 535.951 213.123C535.951 213.123 536.329 213.123 536.735 213.629H536.6C536.764 213.139 537.018 212.687 537.347 212.298C537.554 212.048 537.79 211.828 538.05 211.641C538.201 211.51 538.394 211.443 538.591 211.453C538.699 211.472 538.8 211.525 538.88 211.603C538.96 211.681 539.016 211.783 539.041 211.894C539.088 212.21 539.054 212.534 538.942 212.832C538.733 213.565 538.43 214.266 538.041 214.915C537.843 215.306 537.581 215.658 537.266 215.956Z" fill="#EB996E"/>
<path d="M539.077 210.515C539.193 210.935 539.265 211.365 539.294 211.8C539.339 212.232 539.393 212.738 539.456 213.198C539.469 213.467 539.505 213.733 539.564 213.995C539.627 214.239 539.87 214.408 540.023 214.277C540.176 214.145 540.222 213.826 540.249 213.554C540.276 213.282 540.249 212.992 540.249 212.729C540.249 212.204 540.249 211.725 540.249 211.322C540.227 210.889 540.252 210.455 540.321 210.028C540.394 210.455 540.43 210.888 540.429 211.322C540.429 211.725 540.429 212.204 540.429 212.738C540.429 213.001 540.429 213.282 540.429 213.573C540.439 213.744 540.416 213.916 540.36 214.077C540.304 214.238 540.217 214.386 540.104 214.511C540.023 214.569 539.928 214.6 539.83 214.6C539.732 214.6 539.636 214.569 539.555 214.511C539.412 214.408 539.31 214.255 539.267 214.08C539.206 213.802 539.17 213.52 539.158 213.236C539.122 212.729 539.086 212.26 539.05 211.829C539.015 211.391 539.024 210.951 539.077 210.515Z" fill="#EB996E"/>
<path d="M540.501 212.072C540.546 212.072 540.501 212.373 540.6 212.823C540.647 213.072 540.759 213.302 540.924 213.489C541.023 213.554 541.077 213.545 541.141 213.432C541.201 213.28 541.249 213.124 541.285 212.963C541.454 212.117 541.559 211.257 541.6 210.393C541.815 211.261 541.793 212.174 541.537 213.029C541.497 213.214 541.437 213.394 541.357 213.564C541.33 213.618 541.291 213.665 541.244 213.703C541.198 213.74 541.144 213.766 541.086 213.78C540.975 213.788 540.865 213.751 540.78 213.676C540.662 213.559 540.573 213.414 540.519 213.254C540.475 213.126 540.442 212.994 540.42 212.86C540.357 212.354 540.474 212.063 540.501 212.072Z" fill="#EB996E"/>
<path d="M535.275 235.691L523.616 245.812L523.796 246.019C524.446 246.759 525.348 247.204 526.31 247.26C527.271 247.317 528.216 246.979 528.941 246.319L535.392 240.447C535.927 239.959 536.267 239.28 536.346 238.544C536.424 237.808 536.235 237.068 535.816 236.47L535.275 235.691Z" fill="#263238"/>
<path d="M495.973 212.326L496.775 208.658C496.775 208.658 501.1 208.949 502.488 213.114C503.112 211.706 504.072 210.489 505.278 209.58C506.483 208.67 507.893 208.097 509.371 207.917L510.426 212.607L502.082 216.237L495.973 212.335" fill="#263238"/>
<path d="M479.44 249.977C477.71 249.223 476.02 248.375 474.376 247.435C472.659 246.651 470.984 245.771 469.358 244.799C472.948 245.991 476.347 247.736 479.44 249.977Z" fill="#455A64"/>
<path d="M534.581 235.551C534.313 236.201 533.952 236.805 533.509 237.342C532.527 238.696 531.426 239.952 530.22 241.094C529.015 242.242 527.709 243.269 526.319 244.161C525.762 244.557 525.156 244.873 524.517 245.099C524.436 244.959 527.13 243.373 529.923 240.71C532.716 238.046 534.464 235.438 534.581 235.551Z" fill="#455A64"/>
<path d="M502.488 213.114C502.513 213.307 502.513 213.502 502.488 213.695C502.488 214.127 502.488 214.633 502.542 215.355C502.542 216.866 502.596 218.939 502.632 221.471C502.632 226.696 502.704 233.806 502.758 241.657C502.812 249.508 502.758 256.665 502.758 261.843C502.758 264.385 502.758 266.458 502.704 267.968C502.704 268.643 502.704 269.197 502.659 269.628C502.728 269.64 502.791 269.678 502.834 269.736C502.877 269.793 502.898 269.866 502.892 269.939C502.887 270.011 502.855 270.079 502.803 270.129C502.752 270.178 502.684 270.206 502.614 270.206C502.544 270.206 502.476 270.178 502.424 270.129C502.373 270.079 502.341 270.011 502.335 269.939C502.33 269.866 502.351 269.793 502.394 269.736C502.437 269.678 502.5 269.64 502.569 269.628C502.569 269.197 502.569 268.643 502.515 267.958C502.515 266.458 502.461 264.375 502.425 261.843C502.425 256.618 502.353 249.517 502.307 241.657C502.262 233.796 502.307 226.696 502.307 221.471C502.307 218.939 502.353 216.866 502.371 215.355C502.371 214.68 502.371 214.127 502.371 213.695C502.39 213.498 502.429 213.303 502.488 213.114Z" fill="#455A64"/>
<path d="M501.641 211.725C501.641 211.725 501.506 211.66 501.298 211.725C501.091 211.791 500.902 212.016 500.695 212.419C500.155 213.41 499.847 214.518 499.794 215.656V216.218L499.415 215.815C497.613 213.845 495.892 212.485 495.973 212.373C497.405 213.16 498.688 214.212 499.758 215.477L499.352 215.637C499.41 214.422 499.787 213.248 500.442 212.241C500.677 211.875 501.001 211.538 501.343 211.547C501.686 211.557 501.668 211.716 501.641 211.725Z" fill="#455A64"/>
<path d="M509.479 208.001C509.975 209.433 510.358 210.904 510.624 212.401V212.541L510.507 212.635C509.759 213.17 508.912 213.733 508.002 214.295C507.092 214.858 506.119 215.393 505.299 215.815L504.983 215.974V215.618C504.988 214.587 504.696 213.577 504.145 212.72C503.74 212.091 503.407 211.782 503.443 211.782C503.479 211.782 503.857 211.979 504.344 212.598C505.008 213.465 505.379 214.537 505.398 215.646L505.092 215.449C505.911 214.999 506.822 214.511 507.795 213.901C508.768 213.292 509.542 212.795 510.29 212.288L510.2 212.523C509.847 211.037 509.606 209.526 509.479 208.001Z" fill="#455A64"/>
<path d="M503.857 223.497C503.857 223.497 503.812 223.685 503.857 223.882C503.902 224.079 504.073 224.22 504.281 224.079C504.488 223.938 504.434 223.732 504.281 223.591C504.128 223.45 503.974 223.497 503.947 223.432C503.92 223.366 504.073 223.178 504.416 223.282C504.518 223.313 504.612 223.371 504.687 223.449C504.763 223.528 504.818 223.625 504.848 223.732C504.881 223.873 504.869 224.022 504.816 224.157C504.763 224.292 504.67 224.405 504.551 224.482C504.439 224.569 504.303 224.616 504.164 224.616C504.024 224.616 503.888 224.569 503.776 224.482C503.694 224.412 503.629 224.323 503.587 224.222C503.545 224.121 503.526 224.011 503.533 223.901C503.578 223.516 503.839 223.432 503.857 223.497Z" fill="#455A64"/>
<path d="M504.191 239.5C504.191 239.5 504.146 239.687 504.191 239.884C504.236 240.081 504.407 240.222 504.614 240.081C504.821 239.94 504.767 239.734 504.614 239.593C504.461 239.453 504.308 239.49 504.281 239.434C504.254 239.378 504.407 239.171 504.749 239.284C504.852 239.314 504.947 239.371 505.022 239.45C505.098 239.529 505.153 239.627 505.182 239.734C505.214 239.876 505.203 240.025 505.149 240.159C505.096 240.294 505.003 240.408 504.884 240.484C504.772 240.571 504.637 240.618 504.497 240.618C504.357 240.618 504.221 240.571 504.11 240.484C504.027 240.415 503.963 240.325 503.92 240.224C503.878 240.123 503.859 240.013 503.866 239.903C503.911 239.518 504.173 239.434 504.191 239.5Z" fill="#455A64"/>
<path d="M504.272 257.237C504.317 257.293 504.272 257.434 504.272 257.622C504.272 257.809 504.479 257.969 504.695 257.819C504.911 257.669 504.839 257.472 504.695 257.34C504.551 257.209 504.398 257.237 504.362 257.181C504.326 257.125 504.488 256.918 504.839 257.021C504.941 257.056 505.033 257.116 505.106 257.196C505.18 257.276 505.234 257.374 505.263 257.481C505.291 257.622 505.277 257.769 505.225 257.902C505.172 258.035 505.082 258.149 504.967 258.228C504.852 258.308 504.716 258.35 504.578 258.349C504.44 258.348 504.305 258.304 504.191 258.222C504.107 258.152 504.042 258.061 504.001 257.958C503.96 257.854 503.945 257.742 503.956 257.631C503.992 257.265 504.254 257.181 504.272 257.237Z" fill="#455A64"/>
<path d="M476.052 243.88C475.926 243.88 475.683 243.195 475.503 242.295C475.323 241.394 475.295 240.635 475.422 240.606C475.548 240.578 475.791 241.291 475.962 242.201C476.133 243.111 476.178 243.88 476.052 243.88Z" fill="#F5F5F5"/>
<path d="M479.467 233.872C479.467 234.003 478.782 234.275 477.881 234.481C476.98 234.688 476.215 234.753 476.187 234.622C476.16 234.491 476.872 234.209 477.773 234.003C478.674 233.796 479.44 233.74 479.467 233.872Z" fill="#F5F5F5"/>
<path d="M481.837 239.575C481.936 239.668 481.639 240.156 481.188 240.653C480.738 241.15 480.287 241.497 480.197 241.404C480.107 241.31 480.395 240.831 480.846 240.325C481.296 239.818 481.747 239.481 481.837 239.575Z" fill="#F5F5F5"/>
<path d="M482.368 228.713C482.024 227.387 481.984 225.996 482.251 224.651C482.607 225.975 482.648 227.369 482.368 228.713Z" fill="#F5F5F5"/>
<path d="M489.243 219.623C488.003 219.942 486.708 219.942 485.468 219.623C486.072 219.393 486.72 219.313 487.36 219.389C487.997 219.309 488.642 219.39 489.243 219.623Z" fill="#F5F5F5"/>
<path d="M494.126 219.389C494.124 218.685 494.271 217.99 494.559 217.353C494.928 216.275 495.316 215.477 495.46 215.477C495.463 216.181 495.315 216.876 495.027 217.513C494.649 218.601 494.253 219.436 494.126 219.389Z" fill="#F5F5F5"/>
<path d="M492.297 230.673C492.189 230.739 491.703 230.026 491.225 229.078C490.748 228.131 490.45 227.315 490.567 227.249C490.685 227.184 491.162 227.906 491.64 228.853C492.117 229.801 492.415 230.607 492.297 230.673Z" fill="#F5F5F5"/>
<path d="M498.848 226.752C498.722 226.752 498.694 226.067 498.848 225.279C499.001 224.492 499.136 223.854 499.271 223.863C499.406 223.872 499.415 224.548 499.271 225.345C499.127 226.142 498.974 226.771 498.848 226.752Z" fill="#F5F5F5"/>
<path d="M498.082 233.562C498.082 233.703 497.496 233.89 496.73 233.993C495.964 234.097 495.325 234.069 495.316 233.937C495.307 233.806 495.901 233.609 496.667 233.506C497.433 233.403 498.064 233.44 498.082 233.562Z" fill="#F5F5F5"/>
<path d="M489.243 242.342C489.108 242.342 488.946 241.685 488.874 240.85C488.802 240.015 488.874 239.34 488.982 239.321C489.09 239.303 489.27 239.978 489.342 240.813C489.414 241.648 489.396 242.323 489.243 242.342Z" fill="#F5F5F5"/>
<path d="M496.55 244.94C496.649 245.024 496.199 245.775 495.541 246.61C494.883 247.444 494.271 248.045 494.172 247.96C494.072 247.876 494.523 247.125 495.181 246.3C495.838 245.475 496.451 244.818 496.55 244.94Z" fill="#F5F5F5"/>
<path d="M490.144 254.901C490.027 254.958 489.648 254.32 489.306 253.494C488.964 252.669 488.774 251.937 488.892 251.881C489.009 251.825 489.387 252.463 489.738 253.298C490.09 254.132 490.297 254.845 490.144 254.901Z" fill="#F5F5F5"/>
<path d="M498.451 255.961C498.577 255.961 498.541 256.768 498.361 257.706C498.181 258.644 497.938 259.395 497.812 259.366C497.685 259.338 497.721 258.56 497.902 257.612C498.082 256.665 498.325 255.933 498.451 255.961Z" fill="#F5F5F5"/>
<path d="M490.622 268.465C490.522 268.549 489.946 268.015 489.333 267.274C488.72 266.533 488.306 265.857 488.432 265.773C488.558 265.688 489.108 266.214 489.721 266.955C490.333 267.696 490.721 268.371 490.622 268.465Z" fill="#F5F5F5"/>
<path d="M491.045 273.23C491.045 273.361 490.351 273.586 489.45 273.737C488.549 273.887 487.801 273.896 487.774 273.737C487.747 273.577 488.477 273.371 489.378 273.221C490.279 273.071 491.045 273.089 491.045 273.23Z" fill="#F5F5F5"/>
<path d="M500.334 266.823C500.424 266.917 499.767 267.705 498.866 268.578C497.965 269.45 497.163 270.088 497.064 269.985C496.965 269.881 497.631 269.103 498.532 268.221C499.433 267.339 500.244 266.72 500.334 266.823Z" fill="#F5F5F5"/>
<path d="M492.766 259.892C492.901 259.892 492.946 260.361 492.865 260.905C492.784 261.449 492.631 261.843 492.505 261.843C492.378 261.843 492.333 261.374 492.405 260.83C492.478 260.286 492.64 259.873 492.766 259.892Z" fill="#F5F5F5"/>
<path d="M500.217 239.453C500.217 239.584 499.587 239.518 498.893 239.293C498.199 239.068 497.667 238.796 497.703 238.674C497.739 238.552 498.334 238.608 499.028 238.824C499.722 239.04 500.253 239.331 500.217 239.453Z" fill="#F5F5F5"/>
<path d="M506.497 234.5C506.373 233.837 506.401 233.152 506.578 232.502C506.749 231.414 506.993 230.551 507.128 230.57C507.252 231.237 507.221 231.925 507.038 232.577C506.867 233.637 506.623 234.5 506.497 234.5Z" fill="#F5F5F5"/>
<path d="M514.102 239.021C514.003 239.115 513.417 238.543 512.777 237.755C512.137 236.967 511.714 236.254 511.813 236.16C511.912 236.066 512.507 236.648 513.138 237.436C513.768 238.224 514.21 238.937 514.102 239.021Z" fill="#F5F5F5"/>
<path d="M509.407 242.858C509.401 243.515 509.237 244.16 508.93 244.734C508.551 245.672 508.146 246.459 508.029 246.413C508.035 245.756 508.199 245.111 508.506 244.537C508.876 243.561 509.29 242.811 509.407 242.858Z" fill="#F5F5F5"/>
<path d="M510.029 253.485C509.939 253.579 509.272 253.025 508.551 252.256C507.831 251.487 507.326 250.793 507.416 250.699C507.506 250.605 508.173 251.149 508.894 251.919C509.615 252.688 510.119 253.391 510.029 253.485Z" fill="#F5F5F5"/>
<path d="M515.804 253.992C515.678 253.992 515.741 253.147 515.958 252.172C516.174 251.196 516.435 250.427 516.561 250.455C516.687 250.484 516.624 251.3 516.417 252.275C516.21 253.251 515.931 254.02 515.804 253.992Z" fill="#F5F5F5"/>
<path d="M510.299 263.419C510.2 263.503 509.642 262.978 508.948 262.349C508.254 261.721 507.686 261.195 507.759 261.083C507.831 260.97 508.542 261.317 509.263 262.021C509.984 262.724 510.399 263.334 510.299 263.419Z" fill="#F5F5F5"/>
<path d="M510.669 269.206C510.75 269.3 510.2 269.928 509.344 270.454C508.488 270.979 507.686 271.157 507.641 271.035C507.596 270.913 508.29 270.529 509.101 270.031C509.912 269.534 510.579 269.084 510.669 269.206Z" fill="#F5F5F5"/>
<path d="M518.075 270.369C518.21 270.369 518.336 271.091 518.372 272.001C518.408 272.911 518.372 273.643 518.201 273.643C518.03 273.643 517.94 272.92 517.904 272.02C517.868 271.12 517.967 270.378 518.075 270.369Z" fill="#F5F5F5"/>
<path d="M515.372 263.428C515.161 262.571 515.1 261.681 515.192 260.802C515.133 259.921 515.231 259.037 515.48 258.194C515.69 259.048 515.751 259.934 515.66 260.811C515.725 261.694 515.627 262.583 515.372 263.428Z" fill="#F5F5F5"/>
<path d="M516.958 243.646C517.012 243.767 516.534 244.133 515.841 244.283C515.147 244.433 514.561 244.283 514.561 244.171C514.561 244.058 515.102 243.946 515.741 243.805C516.381 243.664 516.895 243.524 516.958 243.646Z" fill="#F5F5F5"/>
<path d="M514.372 223.61C514.507 225.032 514.321 226.468 513.831 227.803C513.677 227.102 513.677 226.374 513.831 225.673C513.853 224.951 514.038 224.244 514.372 223.61Z" fill="#F5F5F5"/>
<path d="M508.542 221.237C508.669 221.237 508.975 221.837 509.227 222.672C509.479 223.507 509.579 224.201 509.452 224.248C509.326 224.295 509.029 223.647 508.777 222.812C508.524 221.978 508.416 221.284 508.542 221.237Z" fill="#F5F5F5"/>
<path d="M511.155 216.115C511.209 216.228 510.498 216.706 509.506 217.053C508.919 217.316 508.266 217.379 507.641 217.231C507.641 217.091 508.416 216.875 509.371 216.584C510.326 216.293 511.101 215.984 511.155 216.115Z" fill="#F5F5F5"/>
<path d="M515.444 218.498C515.327 218.451 515.444 217.71 515.795 216.837C516.147 215.965 516.453 215.299 516.579 215.355C516.705 215.412 516.579 216.143 516.228 217.006C515.877 217.869 515.57 218.554 515.444 218.498Z" fill="#F5F5F5"/>
<path d="M524.139 223.713C524.067 223.826 523.319 223.357 522.481 222.672C521.643 221.987 521.039 221.34 521.12 221.237C521.201 221.133 521.94 221.602 522.778 222.287C523.616 222.972 524.22 223.61 524.139 223.713Z" fill="#F5F5F5"/>
<path d="M521.12 229.369C520.863 228.706 520.762 227.989 520.823 227.277C520.722 226.573 520.781 225.853 520.994 225.176C521.348 226.545 521.391 227.98 521.12 229.369Z" fill="#F5F5F5"/>
<path d="M524.121 236.226C524.121 236.357 523.427 236.404 522.598 236.329C521.769 236.254 521.093 236.076 521.111 235.945C521.129 235.813 521.805 235.757 522.634 235.841C523.463 235.926 524.139 236.085 524.121 236.226Z" fill="#F5F5F5"/>
<path d="M528.13 235.663C527.711 235.042 527.431 234.332 527.311 233.583C527.191 232.835 527.234 232.068 527.436 231.339C527.621 232.047 527.736 232.773 527.779 233.506C527.967 234.21 528.085 234.933 528.13 235.663Z" fill="#F5F5F5"/>
<path d="M527.391 241.648C527.391 241.779 526.851 242.004 526.121 242.154C525.391 242.304 524.778 242.314 524.751 242.154C524.724 241.995 525.301 241.798 526.031 241.648C526.761 241.497 527.373 241.516 527.391 241.648Z" fill="#F5F5F5"/>
<path d="M506.137 212.598C506.047 212.701 505.686 212.495 505.452 212.054C505.218 211.613 505.254 211.181 505.38 211.163C505.506 211.144 505.668 211.453 505.866 211.819C506.065 212.185 506.227 212.504 506.137 212.598Z" fill="#F5F5F5"/>
<path d="M508.651 211.81C508.533 211.875 508.245 211.51 508.002 211.003C507.759 210.497 507.65 210.065 507.768 209.981C507.885 209.896 508.173 210.281 508.416 210.787C508.66 211.294 508.768 211.753 508.651 211.81Z" fill="#F5F5F5"/>
<path d="M498.839 211.294C498.839 211.425 498.424 211.5 497.938 211.472C497.451 211.444 497.037 211.294 497.037 211.163C497.037 211.031 497.451 210.947 497.938 210.984C498.424 211.022 498.848 211.153 498.839 211.294Z" fill="#F5F5F5"/>
<path d="M514.777 194.879C514.777 194.879 514.678 194.879 514.516 194.879C514.269 194.794 514.033 194.678 513.813 194.532C513.402 194.265 513.049 193.911 512.779 193.492C512.509 193.074 512.327 192.6 512.246 192.102C512.182 191.449 512.08 190.801 511.939 190.161C511.844 189.842 511.651 189.566 511.39 189.373C511.086 189.18 510.754 189.041 510.407 188.96C509.996 188.868 509.598 188.717 509.227 188.51C508.836 188.241 508.541 187.846 508.389 187.384C508.065 186.521 508.047 185.508 507.551 184.899C506.461 183.585 504.191 184.899 502.893 183.332C502.504 182.649 502.236 181.9 502.1 181.118C501.862 180.368 501.353 179.743 500.68 179.378C500.007 179.012 499.224 178.933 498.496 179.158C498.189 179.275 497.888 179.41 497.595 179.561C497.595 179.561 497.595 179.477 497.784 179.364C497.994 179.202 498.224 179.073 498.469 178.98C498.927 178.805 499.418 178.746 499.903 178.808C500.387 178.87 500.85 179.051 501.253 179.336C501.823 179.736 502.256 180.314 502.488 180.987C502.629 181.711 502.885 182.405 503.245 183.041C503.528 183.299 503.861 183.493 504.221 183.609C504.581 183.725 504.96 183.762 505.335 183.717C505.779 183.722 506.222 183.762 506.659 183.839C507.152 183.933 507.599 184.197 507.93 184.589C508.56 185.452 508.533 186.465 508.831 187.215C508.944 187.595 509.176 187.925 509.488 188.153C509.82 188.341 510.175 188.48 510.543 188.566C510.937 188.662 511.313 188.83 511.651 189.063C511.974 189.313 512.211 189.665 512.327 190.067C512.466 190.731 512.553 191.405 512.588 192.084C512.652 192.546 512.804 192.99 513.035 193.391C513.265 193.792 513.57 194.142 513.93 194.419C514.471 194.738 514.795 194.841 514.777 194.879Z" fill="#455A64"/>
<path d="M496.64 396.539C496.631 396.44 496.631 396.339 496.64 396.239C496.64 396.005 496.64 395.714 496.64 395.301C496.64 394.485 496.568 393.332 496.514 391.859C496.415 388.829 496.28 384.505 496.109 379.177C495.748 368.446 495.262 353.682 494.721 337.361C494.18 321.04 493.883 306.238 493.82 295.526C493.82 290.17 493.82 285.837 493.82 282.845C493.82 281.372 493.82 280.209 493.82 279.393C493.82 279.017 493.82 278.727 493.82 278.455C493.809 278.355 493.809 278.254 493.82 278.155C493.834 278.254 493.834 278.355 493.82 278.455V279.393C493.82 280.209 493.82 281.372 493.82 282.845C493.865 285.865 493.91 290.189 493.982 295.517C494.135 306.229 494.514 321.012 495.027 337.352C495.541 353.692 496.019 368.465 496.28 379.168C496.406 384.524 496.496 388.857 496.532 391.849C496.532 393.322 496.532 394.476 496.532 395.301V396.192C496.579 396.304 496.615 396.421 496.64 396.539Z" fill="#263238"/>
<path d="M534.518 397.768C534.392 397.768 529.608 370.998 523.832 337.933C518.057 304.869 513.48 278.023 513.57 278.004C513.66 277.986 518.48 304.766 524.256 337.849C530.031 370.932 534.644 397.712 534.518 397.768Z" fill="#263238"/>
<path d="M504.155 285.752C504.155 285.752 503.983 285.874 503.614 285.837C503.103 285.745 502.643 285.457 502.326 285.03C501.898 284.397 501.62 283.667 501.515 282.901C501.343 282.075 501.181 281.165 501.046 280.199C500.804 278.559 500.66 276.905 500.614 275.247C500.552 274.558 500.576 273.865 500.686 273.183C500.83 273.183 500.956 276.316 501.506 280.134C501.65 281.072 501.794 282.01 501.938 282.807C502.013 283.52 502.234 284.208 502.587 284.824C502.842 285.215 503.217 285.506 503.65 285.649C503.965 285.743 504.155 285.705 504.155 285.752Z" fill="#263238"/>
<path d="M502.398 273.896C502.452 273.952 502.398 274.112 502.452 274.327C502.465 274.385 502.491 274.439 502.528 274.484C502.566 274.529 502.613 274.564 502.666 274.586C502.72 274.607 502.777 274.615 502.834 274.608C502.891 274.602 502.945 274.581 502.992 274.547C503.039 274.513 503.078 274.468 503.105 274.416C503.131 274.363 503.145 274.304 503.145 274.245C503.145 274.185 503.131 274.127 503.105 274.074C503.078 274.022 503.039 273.976 502.992 273.943C502.83 273.793 502.659 273.802 502.641 273.737C502.623 273.671 502.812 273.493 503.163 273.652C503.267 273.698 503.358 273.769 503.43 273.858C503.502 273.948 503.553 274.054 503.578 274.168C503.602 274.318 503.584 274.471 503.524 274.61C503.465 274.748 503.368 274.865 503.245 274.947C503.124 275.033 502.981 275.08 502.835 275.08C502.688 275.08 502.545 275.033 502.425 274.947C502.334 274.879 502.259 274.79 502.206 274.688C502.153 274.585 502.123 274.472 502.118 274.356C502.118 273.971 502.371 273.896 502.398 273.896Z" fill="#263238"/>
<path d="M642.404 401.736L588.704 402.346V261.73H642.404V401.736Z" fill="#F75D34"/>
<g opacity="0.3">
<path d="M642.404 401.736L588.704 402.346V261.73H642.404V401.736Z" fill="black"/>
</g>
<path d="M618.203 402.008L564.504 402.346V261.73H618.203V402.008Z" fill="#F75D34"/>
<path d="M563.251 249.874V251.543H620.248L643.305 216.847L642.737 214.511L563.251 249.874Z" fill="#263238"/>
<path d="M582.469 251.14H580.631V261.73H582.469V251.14Z" fill="#263238"/>
<path d="M624.321 243.477V261.73H626.546V241.516L624.321 243.477Z" fill="#263238"/>
<path d="M586.578 214.511L563.251 249.874H619.41L642.737 214.511H586.578Z" fill="#455A64"/>
<path d="M582.433 249.874C582.325 249.799 587.587 241.816 594.146 232.052C600.706 222.287 606.166 214.436 606.265 214.521C606.364 214.605 601.12 222.569 594.552 232.343C587.984 242.117 582.542 249.949 582.433 249.874Z" fill="#EBEBEB"/>
<path d="M601.228 249.874C601.129 249.799 606.382 241.816 612.941 232.052C619.501 222.287 624.961 214.436 625.069 214.521C625.177 214.605 619.915 222.569 613.356 232.343C606.796 242.117 601.336 249.949 601.228 249.874Z" fill="#EBEBEB"/>
<path d="M575.496 232.192C575.496 232.061 587.966 231.949 603.346 231.949C618.726 231.949 631.205 232.061 631.205 232.192C631.205 232.324 618.735 232.436 603.346 232.436C587.957 232.436 575.496 232.333 575.496 232.192Z" fill="#EBEBEB"/>
<path d="M607.319 276.738H576.541V312.87H607.319V276.738Z" fill="#EBEBEB"/>
<path d="M584.19 323.075C584.19 323.944 583.859 324.776 583.269 325.39C582.68 326.004 581.88 326.349 581.046 326.349C580.262 326.349 578.262 326.265 578.262 326.265C577.769 325.858 577.366 325.346 577.08 324.764C576.794 324.181 576.632 323.541 576.604 322.888C576.617 322.243 576.803 321.616 577.143 321.076C577.482 320.537 577.961 320.109 578.523 319.839C578.523 319.839 580.397 319.839 581.046 319.839C581.874 319.839 582.668 320.179 583.257 320.785C583.845 321.391 584.181 322.214 584.19 323.075Z" fill="#263238"/>
<path d="M578.947 326.349C580.683 326.349 582.091 324.883 582.091 323.075C582.091 321.267 580.683 319.802 578.947 319.802C577.21 319.802 575.802 321.267 575.802 323.075C575.802 324.883 577.21 326.349 578.947 326.349Z" fill="#455A64"/>
<path d="M595.651 323.075C595.651 323.944 595.32 324.776 594.73 325.39C594.14 326.004 593.341 326.349 592.507 326.349C591.723 326.349 589.723 326.265 589.723 326.265C589.23 325.858 588.827 325.346 588.541 324.764C588.255 324.181 588.093 323.541 588.065 322.888C588.077 322.243 588.264 321.616 588.604 321.076C588.943 320.537 589.421 320.109 589.984 319.839C589.984 319.839 591.858 319.839 592.507 319.839C593.334 319.839 594.129 320.179 594.717 320.785C595.306 321.391 595.642 322.214 595.651 323.075Z" fill="#263238"/>
<path d="M590.407 326.349C592.144 326.349 593.552 324.883 593.552 323.075C593.552 321.267 592.144 319.802 590.407 319.802C588.671 319.802 587.263 321.267 587.263 323.075C587.263 324.883 588.671 326.349 590.407 326.349Z" fill="#455A64"/>
<path d="M606.995 323.075C606.995 323.944 606.663 324.776 606.074 325.39C605.484 326.004 604.684 326.349 603.85 326.349C603.066 326.349 601.066 326.265 601.066 326.265C600.574 325.858 600.171 325.346 599.885 324.764C599.599 324.181 599.436 323.541 599.408 322.888C599.424 322.247 599.613 321.623 599.952 321.087C600.291 320.552 600.768 320.126 601.327 319.858C601.327 319.858 603.201 319.858 603.85 319.858C604.675 319.858 605.467 320.195 606.055 320.797C606.643 321.399 606.98 322.217 606.995 323.075Z" fill="#263238"/>
<path d="M604.895 323.075C604.895 323.723 604.711 324.356 604.365 324.894C604.02 325.432 603.529 325.852 602.954 326.1C602.38 326.348 601.747 326.412 601.137 326.286C600.527 326.16 599.967 325.848 599.527 325.39C599.088 324.932 598.788 324.349 598.667 323.714C598.545 323.079 598.608 322.421 598.846 321.823C599.084 321.224 599.487 320.713 600.004 320.353C600.521 319.994 601.129 319.802 601.751 319.802C602.164 319.802 602.573 319.886 602.954 320.051C603.336 320.215 603.682 320.457 603.974 320.761C604.266 321.064 604.498 321.425 604.656 321.823C604.814 322.22 604.895 322.645 604.895 323.075Z" fill="#455A64"/>
<path d="M592.669 284.355L585.668 284.458L592.128 294.804L587.236 294.87L594.092 309.09L591.732 298.518L598.183 298.434L592.669 284.355Z" fill="#F75D34"/>
<path d="M610.202 395.057C610.202 395.057 610.202 394.964 610.202 394.776C610.202 394.588 610.202 394.316 610.202 393.969C610.202 393.238 610.202 392.197 610.202 390.855C610.202 388.116 610.202 384.167 610.139 379.168C610.139 369.169 610.076 355.033 610.031 338.365L610.247 338.59H573.694C573.64 338.646 574.135 338.14 573.928 338.365V354.011C573.928 359.104 573.928 364.057 573.928 368.831C573.928 378.38 573.928 387.216 573.928 395.029L573.739 394.842L600.318 394.945L607.679 394.992H609.617H610.292C610.292 394.992 610.085 394.992 609.662 394.992H607.752H600.435L573.739 395.095H573.55V394.898C573.55 387.084 573.55 378.249 573.55 368.7C573.55 363.925 573.55 358.973 573.55 353.879V338.393C573.342 338.599 573.829 338.074 573.784 338.13H610.337H610.554V338.346C610.554 355.071 610.473 369.3 610.446 379.299C610.446 384.27 610.446 388.21 610.391 390.93C610.391 392.253 610.391 393.285 610.391 394.007C610.391 394.335 610.391 394.588 610.391 394.785C610.342 394.886 610.279 394.978 610.202 395.057Z" fill="#263238"/>
<path d="M605.139 366.514C605.193 366.57 604.931 366.852 605.03 367.377C605.051 367.518 605.1 367.653 605.175 367.773C605.249 367.892 605.348 367.994 605.463 368.071C605.606 368.135 605.762 368.159 605.916 368.141C606.07 368.123 606.217 368.065 606.343 367.97C606.469 367.876 606.57 367.749 606.635 367.603C606.7 367.456 606.728 367.294 606.715 367.133C606.68 366.994 606.616 366.865 606.529 366.754C606.442 366.642 606.334 366.551 606.211 366.486C605.76 366.233 605.418 366.402 605.391 366.336C605.364 366.27 605.706 365.942 606.346 366.167C606.531 366.236 606.698 366.35 606.834 366.498C606.971 366.646 607.072 366.825 607.13 367.021C607.192 367.274 607.177 367.541 607.086 367.785C606.996 368.028 606.835 368.237 606.625 368.381C606.429 368.541 606.189 368.636 605.94 368.651C605.69 368.666 605.442 368.601 605.229 368.465C605.07 368.345 604.939 368.189 604.847 368.009C604.755 367.828 604.704 367.628 604.697 367.424C604.679 366.758 605.121 366.458 605.139 366.514Z" fill="#263238"/>
</svg>
