<svg width="28" height="30" viewBox="0 0 28 30" fill="none" xmlns="http://www.w3.org/2000/svg">
<path d="M24.496 5.58774H24.4496V4.14167C24.4496 3.78085 24.1572 3.48832 23.7963 3.48832C23.4355 3.48832 23.1429 3.78085 23.1429 4.14167V5.58774H21.6504V4.14167C21.6504 3.78085 21.3579 3.48832 20.997 3.48832C20.6361 3.48832 20.3437 3.78085 20.3437 4.14167V5.58774H20.2973C19.9364 5.58774 19.6439 5.88028 19.6439 6.24109V8.34051C19.6439 9.63327 20.5398 10.7201 21.7434 11.0143V20.2373C21.7434 20.6488 21.4086 20.9835 20.997 20.9835C20.5855 20.9835 20.2508 20.6488 20.2508 20.2373V13.939C20.2508 12.2586 19.0439 10.8556 17.4514 10.5492V5.19135C17.4516 3.86639 16.3736 2.78851 15.0486 2.78851H5.95113C4.62623 2.78851 3.54829 3.86639 3.54829 5.19135V23.7827H3.50186C3.14103 23.7827 2.84851 24.0753 2.84851 24.436C2.84851 24.7969 3.14103 25.0894 3.50186 25.0894H4.20163H16.7982H17.498C17.8588 25.0894 18.1514 24.7969 18.1514 24.436C18.1514 24.0753 17.8588 23.7827 17.498 23.7827H17.4514V11.8951C18.3161 12.1722 18.9441 12.9835 18.9441 13.939V20.2373C18.9441 21.3692 19.8651 22.2902 20.997 22.2902C22.129 22.2902 23.0501 21.3692 23.0501 20.2373V11.0143C24.2535 10.7201 25.1494 9.63323 25.1494 8.34051V6.24109C25.1494 5.88023 24.8569 5.58774 24.496 5.58774ZM12.5714 18.43L11.0843 21.4042C10.9698 21.6331 10.739 21.7655 10.4994 21.7655C10.4012 21.7655 10.3015 21.7432 10.2077 21.6963C9.88498 21.5349 9.75417 21.1426 9.91555 20.8198L10.9298 18.7911H9.01285C8.78639 18.7911 8.57614 18.674 8.45707 18.4812C8.33806 18.2888 8.32722 18.0482 8.42849 17.8457L9.91555 14.8714C10.0769 14.5488 10.4693 14.4177 10.7921 14.5793C11.1148 14.7407 11.2456 15.133 11.0843 15.4558L10.07 17.4844H11.9871C12.2135 17.4844 12.4238 17.6016 12.5428 17.7944C12.6618 17.987 12.6727 18.2274 12.5714 18.43ZM14.6524 11.8395C14.6524 12.2004 14.3598 12.4929 13.999 12.4929H7.00093C6.6401 12.4929 6.34758 12.2004 6.34758 11.8395V6.24109C6.34758 5.88028 6.6401 5.58774 7.00093 5.58774H13.999C14.3598 5.58774 14.6524 5.88028 14.6524 6.24109V11.8395Z" fill="#F75D34"/>
</svg>
