<svg width="29" height="30" viewBox="0 0 29 30" fill="none" xmlns="http://www.w3.org/2000/svg">
<g clip-path="url(#clip0_7_264)">
<path d="M6.17932 22.9907C7.8343 22.9907 9.17592 21.6491 9.17592 19.9941C9.17592 18.3392 7.8343 16.9975 6.17932 16.9975C4.52435 16.9975 3.18273 18.3392 3.18273 19.9941C3.18273 21.6491 4.52435 22.9907 6.17932 22.9907Z" fill="#F75D34"/>
<path d="M25.7454 22.113C26.9155 20.9428 26.9155 19.0459 25.7454 17.8757C24.5753 16.7057 22.6783 16.7057 21.5082 17.8757C20.3381 19.0459 20.3381 20.9428 21.5082 22.113C22.6783 23.283 24.5753 23.283 25.7454 22.113Z" fill="#F75D34"/>
<path d="M28.1368 12.4321C26.9379 8.58495 25.6497 6.26571 23.6548 5.91204C21.9207 5.66073 20.1693 5.54988 18.4175 5.58056C18.3826 5.58056 18.3341 5.58356 18.3036 5.58356C17.3948 5.58356 16.3386 5.87907 16.3386 7.21943V10.1519C16.8814 10.2558 17.3711 10.5457 17.7233 10.9716C18.0756 11.3975 18.2685 11.9328 18.2688 12.4855V14.5404C18.2686 14.6262 18.2345 14.7086 18.1735 14.7693C18.1128 14.83 18.0304 14.864 17.9445 14.864H17.4122V16.5101C17.4122 16.6294 17.3648 16.7437 17.2805 16.828C17.1962 16.9124 17.0819 16.9598 16.9627 16.9598C16.8434 16.9598 16.7291 16.9124 16.6447 16.828C16.5604 16.7437 16.513 16.6294 16.513 16.5101V14.8646H15.2669V16.5108C15.2669 16.63 15.2195 16.7443 15.1351 16.8286C15.0508 16.9129 14.9365 16.9603 14.8172 16.9603C14.698 16.9603 14.5836 16.9129 14.4993 16.8286C14.415 16.7443 14.3676 16.63 14.3676 16.5108V14.8646H13.8347C13.7489 14.8646 13.6666 14.8306 13.6058 14.7698C13.5451 14.7092 13.5111 14.6268 13.5111 14.5409V12.4855C13.5113 11.9329 13.7041 11.3976 14.0563 10.9717C14.4084 10.5459 14.8979 10.256 15.4407 10.1519V7.22003C15.4251 6.67936 15.5862 6.14837 15.8998 5.70764C15.2055 5.76791 14.5168 5.87931 13.8389 6.04092C11.5557 6.61639 7.18517 10.1039 5.71294 11.316C5.39524 11.5797 5.20941 11.7416 5.20941 11.7416C5.20941 11.7416 4.85275 11.9484 4.73586 12.0173C3.81331 12.5748 1.8058 13.899 1.24832 15.1345C0.786749 16.1421 0.853886 17.7894 0.96658 18.8857C0.999148 19.1904 1.14331 19.4723 1.3713 19.677C1.5993 19.8818 1.89499 19.995 2.20143 19.9947H2.28414C2.28414 18.9612 2.69466 17.9702 3.42536 17.2395C4.15607 16.5088 5.14713 16.0983 6.1805 16.0983C7.21388 16.0983 8.20494 16.5088 8.93564 17.2395C9.66635 17.9702 10.0769 18.9612 10.0769 19.9947H19.7362C19.7344 18.9612 20.1431 17.9695 20.8725 17.2376C21.602 16.5055 22.5923 16.0933 23.6256 16.0914C24.659 16.0896 25.6508 16.4984 26.3829 17.2278C27.1148 17.9572 27.5271 18.9475 27.5289 19.9809C27.798 19.9469 28.0483 19.8256 28.2418 19.6358C28.4352 19.4458 28.5611 19.1978 28.6001 18.9295C28.6127 18.8138 28.6661 18.3421 28.6853 18.1556C28.8834 16.2303 28.6969 14.2847 28.1368 12.4321Z" fill="#F75D34"/>
</g>
<defs>
<clipPath id="clip0_7_264">
<rect width="27.8778" height="29.2717" fill="white" transform="translate(0.884094)"/>
</clipPath>
</defs>
</svg>
