<svg width="29" height="30" viewBox="0 0 29 30" fill="none" xmlns="http://www.w3.org/2000/svg">
<path d="M25.3829 4.18167H9.27572C8.9336 4.18167 8.65613 4.45914 8.65613 4.80126V23.3866C8.65386 24.0587 8.43085 24.7119 8.02112 25.2451H22.9049C24.615 25.2432 26.0006 23.8576 26.0025 22.1474V4.80126C26.0025 4.45914 25.7249 4.18167 25.3829 4.18167ZM21.6658 20.2888H12.9928C12.6507 20.2888 12.3732 20.0115 12.3732 19.6695C12.3732 19.3273 12.6507 19.0499 12.9928 19.0499H21.6658C22.008 19.0499 22.2854 19.3273 22.2854 19.6695C22.2854 20.0115 22.008 20.2888 21.6658 20.2888ZM21.6658 16.5718H12.9928C12.6507 16.5718 12.3732 16.2946 12.3732 15.9524C12.3732 15.6103 12.6507 15.3328 12.9928 15.3328H21.6658C22.008 15.3328 22.2854 15.6103 22.2854 15.9524C22.2854 16.2946 22.008 16.5718 21.6658 16.5718ZM21.6658 12.8547H12.9928C12.6507 12.8547 12.3732 12.5775 12.3732 12.2354C12.3732 11.8932 12.6507 11.6158 12.9928 11.6158H21.6658C22.008 11.6158 22.2854 11.8932 22.2854 12.2354C22.2854 12.5775 22.008 12.8547 21.6658 12.8547ZM21.6658 9.13767H12.9928C12.6507 9.13767 12.3732 8.86044 12.3732 8.51831C12.3732 8.17619 12.6507 7.89872 12.9928 7.89872H21.6658C22.008 7.89872 22.2854 8.17619 22.2854 8.51831C22.2854 8.86044 22.008 9.13767 21.6658 9.13767Z" fill="#F75D34"/>
<path d="M6.79766 6.66046H4.31978C3.97766 6.66046 3.7002 6.93769 3.7002 7.27982V23.3871C3.7002 24.4136 4.53236 25.2458 5.55873 25.2458C6.58509 25.2458 7.41724 24.4136 7.41724 23.3871V7.27982C7.41724 6.93769 7.13979 6.66046 6.79766 6.66046Z" fill="#F75D34"/>
</svg>
