<svg width="29" height="30" viewBox="0 0 29 30" fill="none" xmlns="http://www.w3.org/2000/svg">
<path d="M14.8371 2.78778C8.67852 2.78778 3.68599 7.78031 3.68599 13.9389C3.68599 20.0975 8.67852 25.0901 14.8371 25.0901C20.9958 25.0901 25.9883 20.0975 25.9883 13.9389C25.9817 7.78307 20.993 2.79436 14.8371 2.78778ZM19.5333 14.2942C19.4561 14.4491 19.3306 14.5747 19.1758 14.6518V14.6558L12.8036 17.8418C12.4101 18.0385 11.9317 17.8789 11.7351 17.4854C11.6792 17.3735 11.6504 17.25 11.6511 17.1249V10.7529C11.6509 10.313 12.0073 9.95623 12.4472 9.95601C12.5709 9.95595 12.693 9.98471 12.8036 10.04L19.1758 13.2261C19.5694 13.4223 19.7295 13.9005 19.5333 14.2942Z" fill="#F75D34"/>
</svg>
