<svg width="61" height="59" viewBox="0 0 61 59" fill="none" xmlns="http://www.w3.org/2000/svg">
<path d="M31.0353 35.871C39.6238 35.871 46.5862 28.9655 46.5862 20.4471C46.5862 11.9288 39.6238 5.02319 31.0353 5.02319C22.4467 5.02319 15.4844 11.9288 15.4844 20.4471C15.4844 28.9655 22.4467 35.871 31.0353 35.871Z" fill="#9DD520"/>
<path d="M31.0349 5.02319V35.8712C39.6236 35.8712 46.5858 28.9656 46.5858 20.4472C46.5858 11.9289 39.6236 5.02319 31.0349 5.02319Z" fill="#6DC200"/>
<path d="M48.1241 20.4477C48.1241 11.1017 40.4579 3.49817 31.035 3.49817C21.6123 3.49817 13.9461 11.1017 13.9461 20.4477C13.9461 28.1742 19.1858 34.7094 26.3258 36.7425V42.6602H20.8407L31.0339 55.5736L41.227 42.6602H35.742V36.7432C42.8833 34.7108 48.1241 28.175 48.1241 20.4477ZM17.0223 20.4477C17.0223 12.784 23.3084 6.54919 31.035 6.54919C38.7618 6.54919 45.0479 12.784 45.0479 20.4477C45.0479 28.1113 38.7618 34.3461 31.035 34.3461C23.3084 34.3461 17.0223 28.1114 17.0223 20.4477Z" fill="#9DD520"/>
<path d="M48.124 20.4477C48.124 11.1017 40.4578 3.49817 31.0349 3.49817V6.54919C38.7617 6.54919 45.0479 12.784 45.0479 20.4477C45.0479 28.1113 38.7617 34.3462 31.0349 34.3462V55.5721L41.2268 42.6601H35.7418V36.743C42.8831 34.7108 48.124 28.175 48.124 20.4477Z" fill="#6DC200"/>
<path d="M37.2495 14.2964H32.1894C32.7347 15.0219 33.1271 15.8655 33.3226 16.7811H37.2495V19.3531H33.3364C33.0338 20.8534 32.1989 22.1653 31.0353 23.0859C30.5666 23.4573 30.0457 23.7641 29.4838 23.9948L31.0353 25.3914L34.193 28.2333L32.4504 30.1375L31.0353 28.8635L25.7375 24.0949V21.9037H27.0341C28.7058 21.9037 30.1304 20.8363 30.6531 19.3531H24.8212V16.7811H30.6308C30.0888 15.332 28.6808 14.2964 27.0341 14.2964H24.8212V11.7245H37.2495V14.2964Z" fill="white"/>
<path d="M31.0352 25.3918L34.1928 28.2337L32.4503 30.138L31.0352 28.864V25.3918Z" fill="#F2F3F7"/>
<path d="M37.2494 14.2965H32.1892C32.7346 15.0219 33.1269 15.8655 33.3224 16.7811H37.2494V19.3531H33.3362C33.0337 20.8534 32.1987 22.1653 31.0352 23.0859V11.7245H37.2494V14.2965Z" fill="#F2F3F7"/>
</svg>
