<svg width="61" height="60" viewBox="0 0 61 60" fill="none" xmlns="http://www.w3.org/2000/svg">
<path d="M51.6119 30.4038C51.6119 35.8469 49.4748 40.9643 45.5945 44.8129C41.7142 48.6615 36.5547 50.7812 31.0669 50.7812L26.8134 30.4038L31.0669 10.0265C36.5547 10.0265 41.7142 12.1462 45.5945 15.9948C49.4748 19.8434 51.6119 24.9608 51.6119 30.4038Z" fill="#6DC200"/>
<path d="M16.5392 15.9948C12.6589 19.8434 10.5218 24.9608 10.5218 30.4038C10.5218 35.8469 12.6589 40.9643 16.5392 44.8129C20.4195 48.6615 25.5791 50.7812 31.0669 50.7812V10.0265C25.5791 10.0265 20.4195 12.1462 16.5392 15.9948Z" fill="#9DD520"/>
<path d="M42.1837 19.3777L41.0987 24.476H37.0434C35.4729 22.9143 33.3991 22.038 31.1905 22.0069C31.1495 22.0061 31.1079 22.0061 31.0669 22.0061L28.6492 18.2451L31.0669 14.8223C35.2434 14.8223 39.1718 16.4198 42.1268 19.3212C42.1459 19.3404 42.1644 19.3586 42.1837 19.3777Z" fill="#F2F3F7"/>
<path d="M31.067 14.8223V22.0061C28.8287 22.0085 26.7197 22.8618 25.1234 24.4235C25.1089 24.4379 25.0945 24.4522 25.0808 24.4665L20.2191 24.414L19.9639 19.3913C22.8081 16.5695 26.7358 14.8223 31.067 14.8223Z" fill="white"/>
<path d="M24.0053 35.0382C24.9507 36.4512 24.7565 38.3496 23.5446 39.5516C22.856 40.2345 21.9404 40.6078 20.9853 40.6078C20.8642 40.6078 20.7422 40.6023 20.6202 40.5903C19.5344 40.482 18.5665 39.9025 17.9638 39.0007C16.2583 36.4496 15.3571 33.4765 15.3571 30.4024C15.3571 26.1065 17.1187 22.2109 19.9637 19.3899L25.0807 24.4651C23.4797 26.0507 22.6 28.1569 22.6 30.4024C22.6 32.0604 23.0864 33.6636 24.0053 35.0382Z" fill="white"/>
<path d="M27.4561 30.4047C27.4561 28.4244 29.0804 26.8132 31.0772 26.8132L32.4415 30.4047L31.0772 33.9963C29.0804 33.9963 27.4561 32.3852 27.4561 30.4047Z" fill="white"/>
<path d="M34.5995 32.6367C35.6701 32.0207 36.5593 31.4125 36.597 31.387C36.9221 31.1641 37.1163 30.7972 37.1163 30.4047C37.1163 30.0124 36.9221 29.6455 36.597 29.4226C36.5593 29.3971 35.6701 28.7889 34.5995 28.1729C32.4808 26.9542 31.5747 26.8132 31.0771 26.8132V33.9963C31.5747 33.9963 32.4808 33.8554 34.5995 32.6367Z" fill="#F2F3F7"/>
<path d="M46.7766 30.4003C46.7766 33.4712 45.8802 36.4379 44.178 38.9898C43.5721 39.8972 42.6002 40.4798 41.5111 40.589C40.4277 40.6972 39.3644 40.3215 38.5947 39.5573C37.378 38.3506 37.1798 36.4529 38.1237 35.0449C39.0208 33.7059 39.5087 32.145 39.5328 30.5308C39.5666 28.2988 38.7134 26.1791 37.1317 24.5624C37.1028 24.533 37.0739 24.5035 37.0433 24.4749L42.1837 19.3766C45.1041 22.2715 46.7341 26.1282 46.7758 30.2426C46.7766 30.2951 46.7766 30.3476 46.7766 30.4003Z" fill="#F2F3F7"/>
</svg>
