<svg width="61" height="60" viewBox="0 0 61 60" fill="none" xmlns="http://www.w3.org/2000/svg">
<path d="M52.262 16.2355C50.2077 16.2355 48.4288 17.4011 47.565 19.0903C47.4858 18.9265 47.4152 18.758 47.3287 18.6002C47.2093 18.3862 47.0837 18.1782 46.9473 17.9702C45.0186 14.998 41.6314 13.0266 37.7811 13.0266H34.7583V15.5385C34.7583 21.4169 39.6319 26.205 45.6228 26.205H46.8425V32.5282C46.8425 38.1986 42.1418 42.8111 36.3629 42.8111H31.058V44.6474H36.3629C43.1739 44.6474 48.714 39.21 48.714 32.5282V22.9926C51.5773 22.952 53.8946 20.6577 53.8946 17.8386V16.2355H52.262ZM42.3222 18.9852C41.9676 18.6504 41.4023 18.6599 41.0611 19.0091C40.7187 19.357 40.7309 19.9117 41.0855 20.2464L45.5412 24.4523C40.575 24.4093 36.5457 20.4282 36.5457 15.5396V14.7804H37.7824C42.606 14.7804 46.5574 18.489 46.8437 23.1528V23.2508L42.3234 18.9839L42.3222 18.9852ZM48.6384 21.3942C48.6384 19.4347 50.2639 17.8399 52.2608 17.8399C52.2608 19.7994 50.6354 21.3942 48.6384 21.3942Z" fill="#9DD520"/>
<path d="M25.7636 14.1587H15.1269C12.1942 14.1587 9.82433 16.4912 9.82433 19.3617V43.7243H31.0661V19.3617C31.0661 16.4912 28.689 14.1587 25.7636 14.1587ZM28.1285 22.6434C28.1285 24.1008 26.9308 25.276 25.4456 25.276H15.4449C13.9596 25.276 12.7619 24.1008 12.7619 22.6434V20.9661C12.7619 19.5088 13.9596 18.3336 15.4449 18.3336H25.4456C26.9308 18.3336 28.1285 19.5088 28.1285 20.9661V22.6434Z" fill="#9DD520"/>
<path d="M31.0609 19.3617V43.7243H20.4364V25.2748H25.4392C26.9244 25.2748 28.1222 24.0996 28.1222 22.6422V20.9648C28.1222 19.5075 26.9244 18.3323 25.4392 18.3323H20.4364V14.1587H25.7572C28.6839 14.1587 31.0597 16.4912 31.0597 19.3617H31.0609Z" fill="#6DC200"/>
<path d="M31.5997 41.438H9.28205C8.70575 41.438 8.23909 41.9198 8.23909 42.5139V44.9445C8.23909 45.5387 8.70575 46.0205 9.28205 46.0205H31.5997C32.176 46.0205 32.6427 45.5387 32.6427 44.9445V42.5139C32.6427 41.9198 32.176 41.438 31.5997 41.438Z" fill="#6DC200"/>
<path d="M21.3051 28.8334L18.2737 33.5689C18.1738 33.7243 18.2883 33.9264 18.4747 33.9264H19.7322C19.8784 33.9264 19.9905 34.0554 19.966 34.1977L19.469 37.1196C19.4263 37.3683 19.7601 37.4963 19.9015 37.2858L23.0876 32.5288C23.1888 32.3781 23.084 32.1761 22.9 32.1677L21.405 32.0984C21.26 32.0912 21.1553 31.9609 21.1832 31.8211L21.7376 28.9996C21.7876 28.7461 21.4428 28.6134 21.3039 28.831L21.3051 28.8334Z" fill="white"/>
</svg>
