<svg width="61" height="60" viewBox="0 0 61 60" fill="none" xmlns="http://www.w3.org/2000/svg">
<path d="M31.0669 8.63135C31.0583 8.63683 30.3355 9.09464 30.3807 9.06595C30.1743 9.19665 27.1215 11.1599 24.7909 14.2514C23.3213 16.2011 22.1388 18.5995 22.1388 21.2701C22.1388 23.8182 23.2179 26.1533 24.5944 28.0955C26.4049 30.6499 28.7299 32.5246 29.7915 33.3104L31.067 18.739L32.0306 13.9965L31.0669 8.63135Z" fill="#9DD520"/>
<path d="M32.3427 33.3106C33.4043 32.5249 35.7294 30.6501 37.5398 28.0957C38.9164 26.1534 39.9954 23.8185 39.9954 21.2703C39.9954 18.5998 38.8129 16.2013 37.3432 14.2516C35.0127 11.1601 31.9599 9.19684 31.7535 9.06616C31.745 9.06084 31.022 8.60286 31.0673 8.63154V18.7391L32.3427 33.3106Z" fill="#6DC200"/>
<path d="M29.7914 18.74V33.3114C30.2916 33.6816 30.5259 33.8215 30.7117 33.9493L31.0674 34.1861L31.7055 26.4631L31.0674 18.7401C30.6212 18.74 30.2377 18.74 29.7914 18.74Z" fill="white"/>
<path d="M32.343 33.3114C32.343 32.9004 32.343 19.1509 32.343 18.74C31.8967 18.74 31.5132 18.74 31.067 18.74V34.1861C31.5469 33.8608 31.7998 33.7133 32.343 33.3114Z" fill="#F2F3F7"/>
<path d="M52.2129 32.8483C52.127 32.8315 52.5243 32.9091 51.3724 32.6845C51.1297 32.6371 47.5247 31.9594 43.6391 32.557C41.1761 32.9358 38.6003 33.8271 36.6966 35.7162C34.8811 37.5175 33.9802 39.9251 33.5694 42.2637C33.0293 45.3381 33.3365 48.2935 33.5274 49.596L35.3823 49.2513L35.328 51.3887C36.4516 51.5513 37.736 51.6491 39.0133 51.6491C42.714 51.6491 46.7051 50.8424 49.3228 48.245C51.2266 46.3559 52.1248 43.8 52.5065 41.3559C53.1088 37.5003 52.4257 33.9232 52.3781 33.6824L52.2953 33.2653L52.2129 32.8483Z" fill="#6DC200"/>
<path d="M33.5274 49.5949C33.6171 50.2081 33.6834 50.4737 33.7238 50.6947L33.8064 51.1116C34.5151 51.2498 34.775 51.3078 35.3283 51.3875C44.5214 42.269 24.5768 62.06 45.7154 41.0845C45.0845 40.4586 44.5425 39.9207 43.9117 39.2947C38.8669 44.3012 38.6875 44.4783 33.5274 49.5949Z" fill="#F2F3F7"/>
<path d="M25.9652 49.2653L28.1357 49.1327L28.608 49.5866C28.9445 47.2829 29.6336 39.88 25.4374 35.7162C20.5302 30.8469 11.1579 32.6071 10.7614 32.6844L9.92091 32.8482L9.75579 33.6822C9.6779 34.0758 7.90391 43.3758 12.8111 48.245C15.6244 51.0366 19.9048 51.6492 23.1206 51.6492C24.7194 51.6492 26.0542 51.4977 26.8153 51.3874L26.3392 50.9298L25.9652 49.2653Z" fill="#9DD520"/>
<path d="M28.3277 51.1117C28.4789 50.3424 28.5236 50.1632 28.6081 49.5855L28.1358 49.1316L18.2223 39.2947L16.4187 41.0845L26.3393 50.9287L26.8153 51.3863C27.1937 51.3315 27.431 51.2865 27.4871 51.2755L28.3277 51.1117Z" fill="#F2F3F7"/>
</svg>
