<svg width="61" height="60" viewBox="0 0 61 60" fill="none" xmlns="http://www.w3.org/2000/svg">
<path d="M10.5918 33.017L13.4221 33.4771C13.8693 35.6267 14.7251 37.6722 15.9438 39.5043L14.2676 41.8245C13.9198 42.2941 13.9258 42.9349 14.2823 43.3981C14.7049 43.9104 15.154 44.4009 15.6277 44.8673C16.1055 45.3419 16.598 45.7794 17.1054 46.2023C17.5725 46.5567 18.2196 46.5625 18.6934 46.2169L21.0312 44.5537C22.8765 45.7631 24.9374 46.6125 27.1035 47.0563L27.5667 49.8656C27.6549 50.4404 28.1173 50.8871 28.6988 50.9594C29.1016 51.0046 29.5075 51.0323 29.9222 51.0527C30.1235 51.0624 30.3202 50.9903 30.4666 50.853C30.6132 50.7157 30.6969 50.525 30.6984 50.325V44.4816C30.6964 44.0877 30.3809 43.7658 29.9839 43.7524C22.5548 43.3704 16.7286 37.2845 16.7286 29.9061C16.7286 22.5278 22.5548 16.4419 29.9839 16.0599C30.3809 16.0466 30.6964 15.7247 30.6984 15.3306V9.4923C30.6975 9.29245 30.6143 9.10164 30.4681 8.96396C30.322 8.82629 30.1256 8.75381 29.9243 8.76313C29.5112 8.78013 29.1026 8.80885 28.6987 8.84914C28.1171 8.92775 27.6566 9.37622 27.5667 9.95163L27.1035 12.761C24.9374 13.2055 22.8766 14.0549 21.0311 15.2643L18.6933 13.6004C18.2195 13.2546 17.5725 13.2605 17.1052 13.615C16.5901 14.0347 16.0969 14.4803 15.6276 14.95C15.1504 15.413 14.7011 15.9037 14.2822 16.4192C13.9242 16.8829 13.9182 17.5255 14.2675 17.9956L15.9436 20.3158C14.7253 22.1473 13.8695 24.1921 13.4221 26.3409L10.5917 26.8002C10.0121 26.8881 9.56179 27.3469 9.48894 27.9239C9.34422 29.2325 9.34422 30.5529 9.48894 31.8614C9.55433 32.4479 10.0048 32.92 10.5918 33.017Z" fill="#6DC200"/>
<path d="M29.9956 18.9935C24.1876 19.3585 19.6654 24.137 19.6654 29.909C19.6654 35.681 24.1877 40.4596 29.9956 40.8244C30.1804 40.832 30.3602 40.7641 30.4931 40.6364C30.6258 40.5088 30.7001 40.3327 30.6984 40.1493V19.6687C30.7001 19.4853 30.626 19.3091 30.4931 19.1815C30.3602 19.0538 30.1804 18.9859 29.9956 18.9935Z" fill="#9DD520"/>
<path d="M35.8445 19.7009H32.1688V21.1591H35.8445C37.061 21.1556 38.0464 20.1783 38.0499 18.9717V14.4626C39.0627 14.1075 39.6701 13.0804 39.4885 12.0303C39.3069 10.9803 38.389 10.2128 37.3147 10.2128C36.2407 10.2128 35.3227 10.9803 35.1411 12.0303C34.9594 13.0804 35.5668 14.1075 36.5796 14.4626V18.9717C36.5796 19.3744 36.2505 19.7009 35.8445 19.7009Z" fill="#9DD520"/>
<path d="M32.1688 24.0748H39.5204C39.9264 24.0748 40.2555 23.7483 40.2555 23.3456C40.2555 22.9429 39.9264 22.6165 39.5204 22.6165H32.1688V24.0748Z" fill="#9DD520"/>
<path d="M32.1688 40.1172H35.8445C36.2505 40.1172 36.5797 40.4437 36.5797 40.8464V45.3555C35.5669 45.7105 34.9595 46.7377 35.1411 47.7878C35.3228 48.8378 36.2407 49.6053 37.3149 49.6053C38.389 49.6053 39.3069 48.8378 39.4886 47.7878C39.6702 46.7377 39.0628 45.7105 38.05 45.3555V40.8464C38.0464 39.6398 37.0611 38.6626 35.8445 38.6589H32.1688V40.1172Z" fill="#9DD520"/>
<path d="M43.1961 32.8239H32.1688V34.2821H43.1961C43.6021 34.2821 43.9313 34.6086 43.9313 35.0114V38.7912C42.9185 39.1464 42.3111 40.1735 42.4927 41.2235C42.6744 42.2736 43.5923 43.0411 44.6665 43.0411C45.7406 43.0411 46.6585 42.2736 46.8401 41.2235C47.0218 40.1735 46.4144 39.1464 45.4016 38.7912V35.0114C45.398 33.8047 44.4126 32.8275 43.1961 32.8239Z" fill="#6DC200"/>
<path d="M50.5477 27.7196C49.6165 27.7235 48.7879 28.307 48.4775 29.1779H32.1688V30.6362H48.4775C48.8531 31.6822 49.9605 32.2821 51.0508 32.0303C52.1412 31.7786 52.8676 30.7553 52.7387 29.6523C52.6101 28.5493 51.6672 27.7177 50.5477 27.7196Z" fill="#9DD520"/>
<path d="M40.2555 36.4716C40.2555 36.0689 39.9264 35.7424 39.5204 35.7424H32.1688V37.2008H39.5204C39.9264 37.2008 40.2555 36.8744 40.2555 36.4716Z" fill="#9DD520"/>
<path d="M45.4013 24.8056V21.0256C46.4141 20.6704 47.0215 19.6434 46.8399 18.5933C46.6582 17.5433 45.7403 16.7758 44.6661 16.7758C43.592 16.7758 42.6741 17.5433 42.4925 18.5933C42.3107 19.6434 42.9182 20.6704 43.931 21.0256V24.8056C43.931 25.2082 43.6018 25.5347 43.1958 25.5347H32.1684V26.9931H43.1958C44.4124 26.9893 45.3976 26.0121 45.4013 24.8056Z" fill="#6DC200"/>
</svg>
