<svg width="47" height="50" viewBox="0 0 47 50" fill="none" xmlns="http://www.w3.org/2000/svg">
<path d="M24.9084 35.8054C30.8836 36.759 35.5781 32.743 38.0336 29.9757C38.0336 29.9757 38.9883 28.2846 39.4289 25.102C39.8696 21.9194 36.0657 11.292 26.998 11.0547C24.4477 11.0858 21.9106 11.4322 19.4413 12.0863L19.3238 12.1119C17.7245 12.4601 16.0705 12.8203 14.2018 13.0879C11.9577 13.3841 9.67706 13.1362 7.54352 12.3643C8.59101 18.7341 12.3838 33.8031 24.9084 35.8054Z" fill="#86F18D"/>
<path d="M22.028 39.9633C24.8046 40.3951 27.6434 39.9067 30.1301 38.5694C32.3009 37.3984 34.2442 35.83 35.8634 33.9415C36.8833 34.8158 37.8353 35.77 38.7108 36.7954C38.9456 37.0758 39.2776 37.2515 39.6366 37.2857C39.9957 37.3198 40.3536 37.2096 40.6348 36.9784C40.9159 36.7471 41.0984 36.413 41.1434 36.0465C41.1885 35.6801 41.0928 35.3098 40.8764 35.0144C34.7721 28.1434 26.5639 23.6101 17.6062 22.1626C17.2434 22.097 16.87 22.1818 16.5681 22.3981C16.2663 22.6147 16.0607 22.9452 15.9966 23.3168C15.9326 23.6886 16.0153 24.0712 16.2266 24.3806C16.4379 24.6897 16.7604 24.9004 17.1232 24.9661C23.1063 26.0356 28.7694 28.4991 33.6759 32.1664C31.577 34.532 27.5641 37.9649 22.4561 37.15C11.7497 35.4382 8.50744 22.5567 7.61201 17.1116C9.43583 17.7715 11.3854 17.9833 13.3037 17.7301C14.9403 17.4958 16.3842 17.1784 17.7827 16.874C19.8934 16.3148 22.0623 16.0187 24.2423 15.9921C31.9939 16.1949 35.4189 23.095 35.8347 27.683C35.8786 28.0502 36.0604 28.3856 36.3416 28.6179C36.6228 28.8502 36.9812 28.961 37.3408 28.9271C37.7005 28.8933 38.0331 28.7172 38.2682 28.4362C38.5032 28.1554 38.6223 27.7916 38.6002 27.4223C38.095 21.8214 33.8768 13.3969 24.3117 13.1458C21.9131 13.1644 19.5256 13.481 17.2013 14.0888C15.8517 14.3828 14.4557 14.6881 12.9259 14.9075C10.9416 15.1631 8.92878 14.7829 7.16393 13.8191C6.88048 13.6569 6.55834 13.5794 6.23408 13.5953C5.9098 13.6111 5.59635 13.7198 5.32926 13.9089C5.06217 14.0979 4.85213 14.3599 4.72294 14.6651C4.59376 14.9702 4.55061 15.3063 4.59838 15.6353C5.00592 19.2701 7.77385 37.6863 22.028 39.9633Z" fill="#24272C"/>
</svg>
