<svg width="30" height="31" viewBox="0 0 30 31" fill="none" xmlns="http://www.w3.org/2000/svg">
<path fill-rule="evenodd" clip-rule="evenodd" d="M17.6878 7.28748H16.6686V11.748C16.6686 12.1461 16.7026 12.4159 16.7591 12.5868C16.8616 12.8722 17.0887 13.0057 17.4177 13.0057C17.7906 13.0057 18.1785 12.7796 18.5855 12.3131V12.9281H19.6075V7.28748H18.5855V11.5989C18.3587 11.919 18.1442 12.0774 17.9398 12.0774C17.8029 12.0774 17.7225 11.9963 17.7001 11.838C17.6878 11.8045 17.6878 11.6802 17.6878 11.4405V7.28748ZM13.1281 7.79786C12.9108 8.08298 12.8083 8.5237 12.8083 9.12676V11.102C12.8083 11.7014 12.9108 12.1464 13.1281 12.4285C13.4108 12.8133 13.8088 13.0057 14.3183 13.0057C14.8302 13.0057 15.2279 12.8133 15.5106 12.4285C15.7248 12.1464 15.8273 11.7017 15.8273 11.102V9.12676C15.8273 8.5237 15.7248 8.08267 15.5106 7.79786C15.2279 7.41208 14.8302 7.21935 14.3183 7.21935C13.8088 7.21935 13.4108 7.41208 13.1281 7.79786ZM10.8797 8.33127L10.075 5.35889H8.88268C9.00069 5.7058 9.12118 6.05338 9.2417 6.40105L9.2417 6.40107L9.24171 6.40108L9.24173 6.40114C9.36504 6.75687 9.48838 7.11268 9.60912 7.46794C9.97281 8.52369 10.1996 9.3195 10.3024 9.86272V12.9284H11.4355V9.86272L12.7991 5.35889H11.6528L10.8797 8.33127ZM21.2663 24.9526C22.1425 24.8547 22.8702 24.198 23.0752 23.3082C23.3671 22.041 23.3683 20.6572 23.3683 19.3522V19.3278C23.3683 18.03 23.3683 16.6558 23.0792 15.3962C22.8739 14.5062 22.1459 13.8497 21.2697 13.7518C19.1944 13.5201 17.0939 13.5189 15.003 13.5201C12.9114 13.5189 10.811 13.5201 8.73567 13.7518C7.85946 13.8494 7.13209 14.5062 6.92738 15.3962C6.63582 16.6637 6.63214 18.0473 6.63214 19.3522C6.63214 20.6572 6.63214 22.041 6.92401 23.3082C7.12841 24.1983 7.85639 24.8547 8.7326 24.9526C10.8076 25.1844 12.9084 25.1856 14.9993 25.1844C17.0912 25.1856 19.1907 25.1844 21.2663 24.9526ZM19.4036 17.7376C19.6957 17.3555 20.0975 17.1655 20.6149 17.1655C21.1225 17.1655 21.5249 17.3558 21.8075 17.737C22.0196 18.0193 22.1206 18.4558 22.1206 19.0521V20.2082H20.0975V21.1983C20.0975 21.7145 20.2675 21.9723 20.6149 21.9723C20.8638 21.9723 21.0093 21.8372 21.067 21.5669C21.0759 21.5119 21.0891 21.287 21.0891 20.8818H22.1206V21.0289C22.1206 21.3551 22.1086 21.5794 22.0991 21.6807C22.0653 21.9048 21.9856 22.1076 21.8628 22.2869C21.5829 22.6923 21.1683 22.8921 20.6401 22.8921C20.111 22.8921 19.708 22.7015 19.4161 22.3203C19.2007 22.0407 19.0911 21.6012 19.0911 21.008V19.0527C19.0911 18.4564 19.189 18.02 19.4036 17.7376ZM20.0981 19.3667H21.1096V18.8501C21.1096 18.3342 20.9402 18.0758 20.6057 18.0758C20.2678 18.0758 20.0981 18.3339 20.0981 18.8501V19.3667ZM13.4503 21.4993C13.2259 21.8164 13.0138 21.9726 12.8107 21.9726C12.6756 21.9726 12.5986 21.8931 12.5741 21.7359C12.5648 21.7034 12.5648 21.58 12.5648 21.3431V17.2336H11.5533V21.6466C11.5533 22.041 11.5873 22.3074 11.6426 22.4768C11.7442 22.7598 11.9688 22.8924 12.2942 22.8924C12.6664 22.8924 13.0482 22.6677 13.4503 22.2067V22.8156H14.4624V17.2336H13.4503V21.4993ZM16.3485 17.7709C16.6747 17.3688 17.0218 17.1657 17.3938 17.1657C17.7958 17.1657 18.0671 17.3774 18.2019 17.796C18.2697 18.0204 18.3044 18.3893 18.3044 18.9178V21.1404C18.3044 21.6569 18.2697 22.0286 18.2019 22.2652C18.0668 22.6807 17.7961 22.8925 17.3938 22.8925C17.0338 22.8925 16.687 22.6924 16.3485 22.2747V22.8155H15.3372V15.3242H16.3485V17.7709ZM16.8524 21.9727C17.1446 21.9727 17.2925 21.7241 17.2925 21.2196V18.8374C17.2925 18.334 17.1443 18.0756 16.8524 18.0756C16.6864 18.0756 16.5173 18.1548 16.3482 18.3221V21.7238C16.5173 21.8932 16.6864 21.9727 16.8524 21.9727ZM7.88019 16.3784H9.06945V22.8152H10.1946V16.3784H11.4059V15.3242H7.88019V16.3784ZM14.806 11.2941C14.806 11.8158 14.6479 12.077 14.3186 12.077C13.989 12.077 13.8306 11.8161 13.8306 11.2941V8.9214C13.8306 8.39966 13.989 8.1394 14.3186 8.1394C14.6479 8.1394 14.806 8.39935 14.806 8.9214V11.2941Z" fill="white"/>
</svg>
