<svg width="30" height="31" viewBox="0 0 30 31" fill="none" xmlns="http://www.w3.org/2000/svg">
<path d="M11.25 22.5372H7.5V9.41222H11.25V22.5372ZM9.49123 8.60787C8.51998 8.60787 7.73438 7.82035 7.73438 6.8491C7.73438 5.87785 8.52189 5.09033 9.49123 5.09033C10.4625 5.09218 11.25 5.8797 11.25 6.8491C11.25 7.82035 10.4625 8.60787 9.49123 8.60787ZM24.375 22.5372H20.625V14.4223C20.625 13.4716 20.3531 12.806 19.185 12.806C17.2481 12.806 16.875 14.4223 16.875 14.4223V22.5372H13.125V9.41222H16.875V10.6666C17.4112 10.256 18.7499 9.41407 20.625 9.41407C21.84 9.41407 24.375 10.1416 24.375 14.5365V22.5372Z" fill="white"/>
</svg>
