<svg width="30" height="31" viewBox="0 0 30 31" fill="none" xmlns="http://www.w3.org/2000/svg">
<path d="M18.382 15.0403C18.0214 14.7991 17.5792 14.5913 17.0679 14.4228C16.5629 14.2566 15.992 14.1028 15.3704 13.966C14.8792 13.8488 14.521 13.7585 14.3079 13.6981C14.0995 13.6385 13.8917 13.556 13.6898 13.451C13.4951 13.351 13.341 13.2306 13.232 13.0935C13.1289 12.9638 13.0789 12.8135 13.0789 12.6335C13.0789 12.34 13.2345 12.0922 13.5548 11.876C13.887 11.6516 14.3348 11.5381 14.8851 11.5381C15.4779 11.5381 15.9092 11.6406 16.1673 11.8428C16.4329 12.0506 16.6648 12.3453 16.8564 12.7203C17.0214 13.0135 17.1707 13.2172 17.3145 13.3478C17.4692 13.4881 17.692 13.5603 17.9764 13.5603C18.2889 13.5603 18.5545 13.4463 18.7648 13.2213C18.9739 12.9975 19.0798 12.7413 19.0798 12.4588C19.0798 12.1656 18.9989 11.8619 18.8398 11.5572C18.6817 11.256 18.4307 10.9653 18.0929 10.6941C17.7579 10.4244 17.331 10.2053 16.8248 10.0431C16.3217 9.88221 15.7182 9.80064 15.0329 9.80064C14.1751 9.80064 13.417 9.92377 12.7795 10.166C12.1339 10.4116 11.6326 10.77 11.2892 11.2306C10.9429 11.6947 10.7676 12.2328 10.7676 12.8297C10.7676 13.4556 10.9348 13.9888 11.2645 14.4125C11.5895 14.831 12.0332 15.1653 12.5839 15.4063C13.1223 15.6416 13.7992 15.8503 14.5964 16.026C15.1823 16.1519 15.6564 16.2725 16.0054 16.3847C16.3395 16.4922 16.6157 16.6485 16.8248 16.8494C17.0242 17.0419 17.1214 17.2866 17.1214 17.5988C17.1214 17.9935 16.9351 18.3156 16.5529 18.5844C16.1614 18.8594 15.641 18.9991 15.0064 18.9991C14.5445 18.9991 14.1695 18.93 13.891 18.7947C13.6145 18.6597 13.3976 18.4878 13.247 18.2825C13.0904 18.0688 12.9417 17.7985 12.8057 17.4775C12.6839 17.1835 12.5326 16.955 12.3557 16.801C12.1707 16.64 11.9429 16.5588 11.6795 16.5588C11.3579 16.5588 11.0882 16.6619 10.8779 16.8653C10.6654 17.071 10.5576 17.3219 10.5576 17.6113C10.5576 18.0744 10.7229 18.555 11.0492 19.0388C11.3723 19.5181 11.7976 19.9066 12.3135 20.1931C13.0354 20.5872 13.9601 20.7866 15.0629 20.7866C15.9814 20.7866 16.7889 20.6403 17.4626 20.3525C18.1426 20.0616 18.6673 19.6519 19.0226 19.135C19.3792 18.6153 19.5601 18.0222 19.5601 17.3716C19.5601 16.8272 19.4551 16.3591 19.2476 15.98C19.041 15.6031 18.7498 15.2866 18.382 15.0403ZM18.5954 23.6716C17.8335 23.6716 17.117 23.4741 16.4904 23.1278C16.0348 23.2147 15.5648 23.2606 15.0842 23.2606C10.8435 23.2606 7.40542 19.7231 7.40542 15.3597C7.40542 14.8153 7.45916 14.2841 7.56104 13.771C7.1726 13.0906 6.94885 12.2991 6.94885 11.4535C6.94885 8.92314 8.9426 6.87158 11.402 6.87158C12.2732 6.87158 13.0848 7.12971 13.7714 7.57471C14.1982 7.49908 14.637 7.45908 15.0842 7.45908C19.3254 7.45908 22.7632 10.9966 22.7632 15.3597C22.7632 15.9416 22.7014 16.5088 22.5857 17.055C22.8817 17.6681 23.0485 18.3591 23.0485 19.0903C23.0482 21.6197 21.0548 23.6716 18.5954 23.6716Z" fill="white"/>
</svg>
