<svg width="30" height="31" viewBox="0 0 30 31" fill="none" xmlns="http://www.w3.org/2000/svg">
<path fill-rule="evenodd" clip-rule="evenodd" d="M13.2709 22.5758C12.7041 22.7395 12.0908 22.8223 11.4474 22.8223C10.7308 22.8223 10.042 22.7402 9.39971 22.5776C8.15686 22.264 7.23847 21.6695 6.80948 20.9034C6.6246 20.5723 6.53094 20.2194 6.53094 19.8539C6.53094 19.4774 6.62097 19.0956 6.79861 18.7174C7.47955 17.2661 9.27464 16.2897 11.2631 16.2897H11.3199C11.1586 16.0051 11.0806 15.7102 11.0806 15.4003C11.0806 15.2462 11.1012 15.0891 11.1422 14.929C9.05652 14.8819 7.49586 13.3544 7.49586 11.3406C7.49586 9.91892 8.63237 8.53348 10.2577 7.97398C10.7441 7.80601 11.2401 7.72021 11.7277 7.72021H16.188C16.3396 7.72021 16.4744 7.8187 16.5215 7.96311C16.5686 8.10691 16.5166 8.26521 16.394 8.35403L15.3964 9.07605C15.3366 9.11835 15.2647 9.14131 15.1904 9.14131H14.8333C15.2943 9.69415 15.5644 10.4826 15.5644 11.3678C15.5644 12.3448 15.0702 13.2686 14.1705 13.9725C13.4757 14.5139 13.4485 14.6631 13.4485 14.9719C13.457 15.1417 13.9409 15.6957 14.475 16.0734C15.7191 16.9531 16.1819 17.8165 16.1819 19.2569C16.1813 20.762 15.0388 22.0622 13.2709 22.5758ZM23.3436 14.9254C23.3436 15.1187 23.1859 15.2758 22.9931 15.2758H20.4585V17.8117C20.4585 18.005 20.3008 18.1621 20.1093 18.1621H19.3872C19.1927 18.1621 19.0356 18.005 19.0356 17.8117V15.2758H16.5027C16.3094 15.2758 16.1523 15.1199 16.1523 14.9254V14.2045C16.1523 14.0112 16.3094 13.8529 16.5027 13.8529H19.0356V11.3195C19.0356 11.1255 19.1927 10.969 19.3872 10.969H20.1093C20.3008 10.969 20.4585 11.1255 20.4585 11.3195V13.8529H22.9925C23.1853 13.8529 23.343 14.01 23.343 14.2033L23.3436 14.9254ZM12.8179 17.6399L12.8179 17.6399C12.7757 17.6109 12.7328 17.5814 12.6891 17.5519C12.3852 17.4588 12.0625 17.4105 11.732 17.4062H11.6921C10.1732 17.4062 8.84149 18.3252 8.84149 19.3741C8.84149 20.5161 9.98284 21.4085 11.439 21.4085C13.3597 21.4085 14.3331 20.7451 14.3331 19.44C14.3331 19.3167 14.3186 19.1887 14.2878 19.06C14.1584 18.5556 13.6968 18.2401 12.9987 17.7628L12.9906 17.7573C12.934 17.7197 12.8766 17.6803 12.8179 17.6399ZM11.9149 13.7768H11.9137H11.8998C10.9349 13.7466 9.97059 12.6064 9.79778 11.2868C9.70171 10.5491 9.857 9.88569 10.2237 9.46697C10.46 9.19629 10.7712 9.05249 11.1198 9.05249L11.1591 9.0537C12.1445 9.0821 13.0889 10.1817 13.2611 11.5025C13.359 12.2415 13.194 12.9375 12.8218 13.3617C12.5844 13.6336 12.278 13.7768 11.9149 13.7768Z" fill="white"/>
</svg>
