<svg width="116" height="23" viewBox="0 0 116 23" fill="none" xmlns="http://www.w3.org/2000/svg">
<path d="M10.2408 4.44428C10.5795 3.40163 12.0546 3.40163 12.3934 4.44428L13.6038 8.16962C13.7553 8.63591 14.1899 8.95161 14.6801 8.95161H18.5972C19.6935 8.95161 20.1493 10.3545 19.2624 10.9989L16.0934 13.3013C15.6968 13.5895 15.5308 14.1003 15.6823 14.5666L16.8928 18.2919C17.2315 19.3346 16.0382 20.2016 15.1512 19.5572L11.9823 17.2548C11.5856 16.9666 11.0485 16.9666 10.6519 17.2548L7.48291 19.5572C6.59598 20.2016 5.40262 19.3346 5.74139 18.2919L6.95183 14.5666C7.10334 14.1003 6.93736 13.5895 6.54072 13.3013L3.37175 10.9989C2.48482 10.3545 2.94064 8.95161 4.03695 8.95161H7.95401C8.44429 8.95161 8.87882 8.63591 9.03032 8.16962L10.2408 4.44428Z" fill="#F59E0B"/>
<path d="M33.5821 4.44428C33.9208 3.40163 35.3959 3.40163 35.7347 4.44428L36.9451 8.16962C37.0966 8.63591 37.5312 8.95161 38.0215 8.95161H41.9385C43.0348 8.95161 43.4906 10.3545 42.6037 10.9989L39.4347 13.3013C39.0381 13.5895 38.8721 14.1003 39.0236 14.5666L40.2341 18.2919C40.5728 19.3346 39.3795 20.2016 38.4925 19.5572L35.3236 17.2548C34.9269 16.9666 34.3898 16.9666 33.9932 17.2548L30.8242 19.5572C29.9373 20.2016 28.7439 19.3346 29.0827 18.2919L30.2931 14.5666C30.4446 14.1003 30.2787 13.5895 29.882 13.3013L26.7131 10.9989C25.8261 10.3545 26.282 8.95161 27.3783 8.95161H31.2953C31.7856 8.95161 32.2201 8.63591 32.3716 8.16962L33.5821 4.44428Z" fill="#F59E0B"/>
<path d="M56.9234 4.44428C57.2622 3.40163 58.7372 3.40163 59.076 4.44428L60.2864 8.16962C60.438 8.63591 60.8725 8.95161 61.3628 8.95161H65.2798C66.3761 8.95161 66.8319 10.3545 65.945 10.9989L62.7761 13.3013C62.3794 13.5895 62.2134 14.1003 62.3649 14.5666L63.5754 18.2919C63.9142 19.3346 62.7208 20.2016 61.8339 19.5572L58.6649 17.2548C58.2682 16.9666 57.7311 16.9666 57.3345 17.2548L54.1655 19.5572C53.2786 20.2016 52.0852 19.3346 52.424 18.2919L53.6344 14.5666C53.786 14.1003 53.62 13.5895 53.2233 13.3013L50.0544 10.9989C49.1674 10.3545 49.6233 8.95161 50.7196 8.95161H54.6366C55.1269 8.95161 55.5614 8.63591 55.7129 8.16962L56.9234 4.44428Z" fill="#F59E0B"/>
<path d="M80.2655 4.44428C80.6043 3.40163 82.0794 3.40163 82.4182 4.44428L83.6286 8.16962C83.7801 8.63591 84.2146 8.95161 84.7049 8.95161H88.622C89.7183 8.95161 90.1741 10.3545 89.2872 10.9989L86.1182 13.3013C85.7216 13.5895 85.5556 14.1003 85.7071 14.5666L86.9175 18.2919C87.2563 19.3346 86.063 20.2016 85.176 19.5572L82.0071 17.2548C81.6104 16.9666 81.0733 16.9666 80.6767 17.2548L77.5077 19.5572C76.6208 20.2016 75.4274 19.3346 75.7662 18.2919L76.9766 14.5666C77.1281 14.1003 76.9621 13.5895 76.5655 13.3013L73.3965 10.9989C72.5096 10.3545 72.9654 8.95161 74.0617 8.95161H77.9788C78.4691 8.95161 78.9036 8.63591 79.0551 8.16962L80.2655 4.44428Z" fill="#F59E0B"/>
<path d="M103.607 4.44428C103.946 3.40163 105.421 3.40163 105.759 4.44428L106.97 8.16962C107.121 8.63591 107.556 8.95161 108.046 8.95161H111.963C113.06 8.95161 113.515 10.3545 112.628 10.9989L109.46 13.3013C109.063 13.5895 108.897 14.1003 109.048 14.5666L110.259 18.2919C110.598 19.3346 109.404 20.2016 108.517 19.5572L105.348 17.2548C104.952 16.9666 104.415 16.9666 104.018 17.2548L100.849 19.5572C99.9621 20.2016 98.7687 19.3346 99.1075 18.2919L100.318 14.5666C100.469 14.1003 100.303 13.5895 99.9068 13.3013L96.7378 10.9989C95.8509 10.3545 96.3067 8.95161 97.403 8.95161H101.32C101.81 8.95161 102.245 8.63591 102.396 8.16962L103.607 4.44428Z" fill="#D4D4D8"/>
</svg>
