<svg width="84" height="16" viewBox="0 0 84 16" fill="none" xmlns="http://www.w3.org/2000/svg">
<path d="M7.23912 3.14164C7.4786 2.40459 8.52133 2.40459 8.76081 3.14164L9.61646 5.77508C9.72356 6.10469 10.0307 6.32786 10.3773 6.32786H13.1463C13.9212 6.32786 14.2435 7.31955 13.6165 7.77508L11.3764 9.40263C11.096 9.60634 10.9786 9.96744 11.0857 10.2971L11.9414 12.9305C12.1809 13.6675 11.3373 14.2804 10.7103 13.8249L8.47019 12.1974C8.1898 11.9937 7.81012 11.9937 7.52973 12.1974L5.2896 13.8249C4.66263 14.2804 3.81904 13.6675 4.05853 12.9305L4.91418 10.2971C5.02128 9.96744 4.90395 9.60634 4.62356 9.40263L2.38343 7.77508C1.75646 7.31955 2.07868 6.32786 2.85366 6.32786H5.62262C5.9692 6.32786 6.27636 6.10469 6.38346 5.77508L7.23912 3.14164Z" fill="#FECE23"/>
<path d="M24.2391 3.14164C24.4786 2.40459 25.5213 2.40459 25.7608 3.14164L26.6165 5.77508C26.7236 6.10469 27.0307 6.32786 27.3773 6.32786H30.1463C30.9212 6.32786 31.2435 7.31955 30.6165 7.77508L28.3764 9.40263C28.096 9.60634 27.9786 9.96744 28.0857 10.2971L28.9414 12.9305C29.1809 13.6675 28.3373 14.2804 27.7103 13.8249L25.4702 12.1974C25.1898 11.9937 24.8101 11.9937 24.5297 12.1974L22.2896 13.8249C21.6626 14.2804 20.819 13.6675 21.0585 12.9305L21.9142 10.2971C22.0213 9.96744 21.904 9.60634 21.6236 9.40263L19.3834 7.77508C18.7565 7.31955 19.0787 6.32786 19.8537 6.32786H22.6226C22.9692 6.32786 23.2764 6.10469 23.3835 5.77508L24.2391 3.14164Z" fill="#FECE23"/>
<path d="M41.2391 3.14164C41.4786 2.40459 42.5213 2.40459 42.7608 3.14164L43.6165 5.77508C43.7236 6.10469 44.0307 6.32786 44.3773 6.32786H47.1463C47.9212 6.32786 48.2435 7.31955 47.6165 7.77508L45.3764 9.40263C45.096 9.60634 44.9786 9.96744 45.0857 10.2971L45.9414 12.9305C46.1809 13.6675 45.3373 14.2804 44.7103 13.8249L42.4702 12.1974C42.1898 11.9937 41.8101 11.9937 41.5297 12.1974L39.2896 13.8249C38.6626 14.2804 37.819 13.6675 38.0585 12.9305L38.9142 10.2971C39.0213 9.96744 38.904 9.60634 38.6236 9.40263L36.3834 7.77508C35.7565 7.31955 36.0787 6.32786 36.8537 6.32786H39.6226C39.9692 6.32786 40.2764 6.10469 40.3835 5.77508L41.2391 3.14164Z" fill="#FECE23"/>
<path d="M58.2391 3.14164C58.4786 2.40459 59.5213 2.40459 59.7608 3.14164L60.6165 5.77508C60.7236 6.10469 61.0307 6.32786 61.3773 6.32786H64.1463C64.9212 6.32786 65.2435 7.31955 64.6165 7.77508L62.3764 9.40263C62.096 9.60634 61.9786 9.96744 62.0857 10.2971L62.9414 12.9305C63.1809 13.6675 62.3373 14.2804 61.7103 13.8249L59.4702 12.1974C59.1898 11.9937 58.8101 11.9937 58.5297 12.1974L56.2896 13.8249C55.6626 14.2804 54.819 13.6675 55.0585 12.9305L55.9142 10.2971C56.0213 9.96744 55.904 9.60634 55.6236 9.40263L53.3834 7.77508C52.7565 7.31955 53.0787 6.32786 53.8537 6.32786H56.6226C56.9692 6.32786 57.2764 6.10469 57.3835 5.77508L58.2391 3.14164Z" fill="#FECE23"/>
<path d="M75.2391 3.14164C75.4786 2.40459 76.5213 2.40459 76.7608 3.14164L77.6165 5.77508C77.7236 6.10469 78.0307 6.32786 78.3773 6.32786H81.1463C81.9212 6.32786 82.2435 7.31955 81.6165 7.77508L79.3764 9.40263C79.096 9.60634 78.9786 9.96744 79.0857 10.2971L79.9414 12.9305C80.1809 13.6675 79.3373 14.2804 78.7103 13.8249L76.4702 12.1974C76.1898 11.9937 75.8101 11.9937 75.5297 12.1974L73.2896 13.8249C72.6626 14.2804 71.819 13.6675 72.0585 12.9305L72.9142 10.2971C73.0213 9.96744 72.904 9.60634 72.6236 9.40263L70.3834 7.77508C69.7565 7.31955 70.0787 6.32786 70.8537 6.32786H73.6226C73.9692 6.32786 74.2764 6.10469 74.3835 5.77508L75.2391 3.14164Z" fill="#FECE23"/>
</svg>
